<?xml version="1.0" encoding="UTF-8" standalone="no"?>
<svg
   xmlns:dc="http://purl.org/dc/elements/1.1/"
   xmlns:cc="http://web.resource.org/cc/"
   xmlns:rdf="http://www.w3.org/1999/02/22-rdf-syntax-ns#"
   xmlns:svg="http://www.w3.org/2000/svg"
   xmlns="http://www.w3.org/2000/svg"
   xmlns:xlink="http://www.w3.org/1999/xlink"
   xmlns:sodipodi="http://sodipodi.sourceforge.net/DTD/sodipodi-0.dtd"
   xmlns:inkscape="http://www.inkscape.org/namespaces/inkscape"
   width="655"
   height="156"
   id="svg2"
   sodipodi:version="0.32"
   inkscape:version="0.45.1"
   sodipodi:docname="logo.svg"
   inkscape:output_extension="org.inkscape.output.svg.inkscape"
   sodipodi:docbase="c:\TEMP\touchandlearn\trunk\webpage\images"
   version="1.0"
   inkscape:export-filename="c:\TEMP\touchandlearn\trunk\webpage\header.png"
   inkscape:export-xdpi="90"
   inkscape:export-ydpi="90">
  <metadata
     id="metadata459">
    <rdf:RDF>
      <cc:Work
         rdf:about="">
        <dc:format>image/svg+xml</dc:format>
        <dc:type
           rdf:resource="http://purl.org/dc/dcmitype/StillImage" />
      </cc:Work>
    </rdf:RDF>
  </metadata>
  <defs
     id="defs457">
    <linearGradient
       id="linearGradient3237">
      <stop
         id="stop3239"
         offset="0"
         style="stop-color:#cccc99;stop-opacity:1;" />
      <stop
         id="stop3241"
         offset="1"
         style="stop-color:#ffffcc;stop-opacity:1" />
    </linearGradient>
    <linearGradient
       inkscape:collect="always"
       id="linearGradient5217">
      <stop
         style="stop-color:#ffffff;stop-opacity:1;"
         offset="0"
         id="stop5219" />
      <stop
         style="stop-color:#ffffff;stop-opacity:0;"
         offset="1"
         id="stop5221" />
    </linearGradient>
    <filter
       inkscape:collect="always"
       x="-0.20102964"
       width="1.4020593"
       y="-0.80411857"
       height="2.608237"
       id="filter5209">
      <feGaussianBlur
         inkscape:collect="always"
         stdDeviation="2.5966329"
         id="feGaussianBlur5211" />
    </filter>
    <filter
       inkscape:collect="always"
       x="-0.19843648"
       width="1.396873"
       y="-0.79374593"
       height="2.587492"
       id="filter5213">
      <feGaussianBlur
         inkscape:collect="always"
         stdDeviation="2.563138"
         id="feGaussianBlur5215" />
    </filter>
    <linearGradient
       inkscape:collect="always"
       xlink:href="#linearGradient5217"
       id="linearGradient5223"
       x1="12.042246"
       y1="8.3263264"
       x2="23.798826"
       y2="27.634771"
       gradientUnits="userSpaceOnUse" />
    <linearGradient
       inkscape:collect="always"
       xlink:href="#linearGradient5217"
       id="linearGradient5225"
       gradientUnits="userSpaceOnUse"
       x1="2.205663"
       y1="11.836136"
       x2="19.060959"
       y2="26.417589" />
    <linearGradient
       inkscape:collect="always"
       xlink:href="#linearGradient3237"
       id="linearGradient3233"
       x1="0"
       y1="0"
       x2="0"
       y2="155"
       gradientUnits="userSpaceOnUse" />
    <filter
       inkscape:collect="always"
       id="filter3362">
      <feGaussianBlur
         inkscape:collect="always"
         stdDeviation="0.79751716"
         id="feGaussianBlur3364" />
    </filter>
  </defs>
  <sodipodi:namedview
     inkscape:window-height="998"
     inkscape:window-width="1280"
     inkscape:pageshadow="2"
     inkscape:pageopacity="0.0"
     guidetolerance="10000"
     gridtolerance="10.0"
     objecttolerance="10.0"
     borderopacity="1.0"
     bordercolor="#666666"
     pagecolor="#ffffff"
     id="base"
     inkscape:zoom="2.8284273"
     inkscape:cx="101.70016"
     inkscape:cy="37.74184"
     inkscape:window-x="0"
     inkscape:window-y="0"
     inkscape:current-layer="svg2"
     width="655px"
     height="156px"
     showguides="true"
     inkscape:guide-bbox="true"
     inkscape:guide-points="true" />
  <rect
     style="opacity:1;fill:url(#linearGradient3233);fill-opacity:1.0;fill-rule:evenodd;stroke:none;stroke-width:2;stroke-linecap:round;stroke-linejoin:round;stroke-miterlimit:4;stroke-dasharray:none;stroke-opacity:1"
     id="rect2256"
     width="655"
     height="156"
     x="0"
     y="0" />
  <g
     id="g5104"
     transform="matrix(2.1670132,0,0,2.1670132,-371.59707,-71.022859)">
    <path
       transform="matrix(0.9274194,0,0,0.7741935,47.754032,13.169355)"
       d="M 220.5 97.625 A 15.5 3.875 0 1 1  189.5,97.625 A 15.5 3.875 0 1 1  220.5 97.625 z"
       sodipodi:ry="3.875"
       sodipodi:rx="15.5"
       sodipodi:cy="97.625"
       sodipodi:cx="205"
       id="path3827"
       style="opacity:0.65;fill:#000000;fill-opacity:1;fill-rule:evenodd;stroke:none;stroke-width:2;stroke-linecap:round;stroke-linejoin:round;stroke-miterlimit:4;stroke-dasharray:none;stroke-opacity:1;filter:url(#filter5213)"
       sodipodi:type="arc" />
    <g
       transform="matrix(0.5722547,1.4173981e-2,-1.4173981e-2,0.5722547,43.452476,39.898256)"
       id="g2612">
      <g
         transform="translate(306.216,5.00781)"
         style="fill:#000000;fill-rule:evenodd;stroke:none;stroke-width:0.036pt;stroke-linecap:butt;stroke-linejoin:miter;stroke-dasharray:none"
         id="g144">
        <path
           d="M 20.519,13.3555 C 21.239,11.3399 23.292,8.85549 23.544,8.53129 C 23.544,8.53129 16.129,0.75586 16.129,0.75586 C 16.129,0.75586 16.488,0.36035 16.488,0.36035 C 16.488,0.36035 23.903,8.09959 23.903,8.09959 C 24.624,7.30759 24.767,7.09179 26.136,6.44339 C 27.575,5.79589 29.555,5.58009 31.283,6.01169 C 32.723,6.40719 33.407,7.12789 34.092,7.66799 C 34.092,7.66799 41.399,0 41.399,0 C 41.399,0 41.795,0.32324 41.795,0.32324 C 41.795,0.32324 34.703,8.24319 34.703,8.24319 C 34.703,8.24319 34.704,8.24419 34.704,8.24419 C 35.063,8.78419 36.899,11.0156 38.16,13.3555 C 39.132,15.1914 39.42,17.2442 40.103,19.836 C 40.355,20.6641 43.092,20.0156 44.748,20.8438 C 46.367,21.6719 46.475,22.5713 46.548,23.4717 C 48.023,23.544 49.391,23.9033 51.552,24.4795 C 54.216,25.1279 55.8,27.3233 56.844,28.836 C 57.96,30.5635 57.779,31.4639 58.031,33.9834 C 58.103,34.8838 57.96,36.3233 57.96,39.2754 C 57.96,41.0762 59.004,40.3193 59.147,43.0918 C 59.292,45.8281 57.851,47.376 55.979,47.5195 C 55.872,47.5195 54.504,46.3682 54.252,46.332 C 53.891,46.2959 52.452,47.5918 52.235,47.4473 C 49.139,45.6113 49.319,42.3721 50.435,40.8955 C 50.903,40.2842 51.84,40.0313 51.84,39.2754 C 51.84,37.6201 52.055,35.3516 51.84,33.4434 C 51.588,31.5361 50.687,31.0674 49.464,30.5996 C 48.527,30.2393 47.592,30.4561 46.475,30.4199 C 46.439,33.1914 46.512,36.6475 46.187,39.9961 C 46.115,40.8955 46.044,43.7041 44.855,44.0996 C 44.855,44.0996 42.696,44.1348 42.696,44.1348 C 42.696,44.1348 42.695,44.1358 42.695,44.1358 C 43.92,45.0713 44.891,45.5039 44.891,47.7715 C 44.891,49.2842 43.055,50.2559 43.019,51.6602 C 42.947,52.8115 45.179,53.7481 44.964,56.4473 C 44.783,58.752 43.235,59.292 43.128,60.4795 C 43.055,61.668 44.891,61.0195 44.891,63.9356 C 44.891,66.3115 43.128,65.6992 43.128,67.6074 C 43.128,68.8682 45.647,69.0479 46.332,71.1358 C 46.836,72.7559 46.907,73.1152 46.512,74.6279 C 41.399,74.6279 36.828,74.916 30.996,74.7354 C 31.031,72.3594 30.744,73.2236 31.103,71.1719 C 31.464,69.084 33.443,68.6152 33.552,67.9317 C 33.767,66.4912 31.716,66.2393 31.788,64.1152 C 31.823,62.0273 33.947,61.5957 33.84,60.2637 C 33.66,58.6436 31.716,58.3193 31.788,55.7276 C 31.823,53.208 33.263,53.208 33.227,51.876 C 33.191,50.3994 31.103,50.292 31.428,47.5195 C 31.643,45.4678 32.76,44.8555 33.588,44.0274 C 33.588,44.0274 27.648,43.8477 27.648,43.8477 C 27.648,43.8477 27.647,43.8477 27.647,43.8477 C 28.475,44.8916 29.304,45.0713 29.267,48.0596 C 29.231,50.832 27.395,50.544 27.647,52.2715 C 27.828,53.6397 29.412,53.5674 29.267,56.2676 C 29.124,59.5078 27.323,59.3281 27.468,60.6602 C 27.611,62.0635 29.88,61.5957 29.592,64.332 C 29.304,66.9961 27.72,66.708 27.611,68.1836 C 27.504,69.2637 29.952,69.2637 30.059,70.9199 C 30.168,72.9717 30.347,72.7559 30.132,74.5557 C 23.76,74.8438 18.756,74.7354 13.319,74.7354 C 12.96,72.792 12.96,72.0713 14.292,69.9473 C 15.695,67.6436 17.891,68.0401 17.783,67.4277 C 17.496,66.168 15.767,66.3477 15.624,63.9356 C 15.552,62.1358 17.964,61.7041 18.036,60.5879 C 18.143,59.1475 15.876,58.5713 15.804,55.5479 C 15.767,53.208 18.179,53.3877 18.323,52.0195 C 18.504,50.3633 15.767,50.1836 15.695,48.0957 C 15.588,45.9717 16.235,44.46 17.279,43.668 C 17.279,43.668 14.651,43.6328 14.651,43.6328 C 14.651,43.6328 14.651,43.6318 14.651,43.6318 C 13.643,43.7393 13.248,43.7754 13.176,40.7158 C 13.103,37.1514 13.139,34.1641 13.176,31.1397 C 11.771,31.0674 10.475,30.4561 9.359,31.5713 C 8.279,32.6152 7.884,33.7315 7.92,34.7754 C 7.92,36.3233 7.848,37.3682 7.811,39.0235 C 7.739,40.8233 7.956,39.9961 9.071,41.3633 C 10.223,42.7315 10.044,46.2959 7.164,47.8076 C 6.84,47.9522 5.544,46.8721 5.004,46.8721 C 4.464,46.8721 3.023,48.1318 2.916,48.0596 C 1.08,47.376 0.54,45.4678 0.359,43.8838 C 0,40.7158 2.052,40.752 1.872,39.3477 C 1.548,36.8281 1.655,36.3594 1.62,34.8115 C 1.584,31.752 1.907,30.5274 2.807,29.0879 C 4.355,26.5674 5.435,25.5957 7.632,24.8399 C 10.115,23.9756 11.807,24.0117 13.571,24.084 C 13.536,22.2842 14.435,21.168 15.552,20.9873 C 16.775,20.8076 16.632,20.8438 18.468,20.5918 C 19.836,16.3799 19.008,17.4961 20.519,13.3555 z "
           id="path146" />
      </g>
      <g
         transform="translate(326.987,11.8838)"
         style="fill:#ffff00;fill-rule:evenodd;stroke:none;stroke-width:0.036pt;stroke-linecap:butt;stroke-linejoin:miter;stroke-dasharray:none"
         id="g148">
        <path
           d="M 0,13.7158 C 0.252,11.5918 0.649,8.8916 1.8,6.0478 C 2.664,3.8516 3.456,2.8799 4.788,1.8721 C 6.372,0.6836 7.884,0 10.296,1.0078 C 12.672,2.0156 13.788,3.9961 14.941,6.4433 C 16.416,9.7197 16.956,11.8076 17.172,13.4277 C 9.72,13.6797 6.804,13.6074 0,13.7158 z "
           id="path150" />
      </g>
      <g
         transform="translate(323.819,57.5313)"
         style="fill:#a1a1a1;fill-rule:evenodd;stroke:none;stroke-width:0.036pt;stroke-linecap:butt;stroke-linejoin:miter;stroke-dasharray:none"
         id="g152">
        <path
           d="M 0,3.456 C 0,1.4765 1.836,1.1884 1.836,0.6484 C 1.836,0 8.136,0.0361 8.101,0.54 C 8.029,1.4042 9.937,1.5839 9.865,3.8164 C 9.828,5.6884 8.029,6.2285 8.136,6.9482 C 8.208,7.4521 1.764,7.4521 1.909,6.8759 C 2.052,6.4804 0,5.832 0,3.456 z "
           id="path154" />
      </g>
      <g
         transform="translate(323.315,65.3076)"
         style="fill:#a1a1a1;fill-rule:evenodd;stroke:none;stroke-width:0.036pt;stroke-linecap:butt;stroke-linejoin:miter;stroke-dasharray:none"
         id="g156">
        <path
           d="M 0.073,3.6358 C 0,2.4121 2.304,1.6563 2.233,0.9717 C 2.124,0 8.424,0.1797 8.497,1.0801 C 8.533,1.7275 10.693,2.2315 10.764,3.7803 C 10.909,6.0479 8.497,6.1201 8.605,6.7676 C 8.748,7.6319 2.016,7.8838 2.088,7.0557 C 2.124,6.2637 0.18,5.6875 0.073,3.6358 z "
           id="path158" />
      </g>
      <g
         transform="translate(339.695,65.668)"
         style="fill:#a1a1a1;fill-rule:evenodd;stroke:none;stroke-width:0.036pt;stroke-linecap:butt;stroke-linejoin:miter;stroke-dasharray:none"
         id="g160">
        <path
           d="M 0.073,3.1318 C 0,1.6914 1.765,1.1875 1.945,0.5039 C 2.124,0 8.569,0.0351 8.424,0.7558 C 8.281,1.584 10.008,1.331 9.973,3.6357 C 9.901,5.5791 7.956,5.5078 8.029,6.1552 C 8.136,7.3437 2.124,7.1992 2.017,6.4433 C 1.945,5.9756 0.109,5.2197 0.073,3.1318 z "
           id="path162" />
      </g>
      <g
         transform="translate(320.76,73.4072)"
         style="fill:#404040;fill-rule:evenodd;stroke:none;stroke-width:0.036pt;stroke-linecap:butt;stroke-linejoin:miter;stroke-dasharray:none"
         id="g164">
        <path
           d="M 2.555,1.044 C 4.067,0.2881 9.756,0 11.735,1.0801 C 13.464,2.0528 14.111,4.9326 13.284,5.0039 C 11.124,5.1485 3.708,5.3643 0.576,5.0401 C 0,5.0039 0.828,1.9082 2.555,1.044 z "
           id="path166" />
      </g>
      <g
         transform="translate(338.579,73.4434)"
         style="fill:#404040;fill-rule:evenodd;stroke:none;stroke-width:0.036pt;stroke-linecap:butt;stroke-linejoin:miter;stroke-dasharray:none"
         id="g168">
        <path
           d="M 1.692,1.2597 C 3.204,0.5039 8.389,0 10.368,1.1162 C 12.097,2.0517 13.105,5.1484 12.24,5.2197 C 10.08,5.3642 3.708,5.4004 0.576,5.1123 C 0,5.04 0,2.124 1.692,1.2597 z "
           id="path170" />
      </g>
      <g
         transform="translate(307.728,45.6514)"
         style="fill:#ffff00;fill-rule:evenodd;stroke:none;stroke-width:0.036pt;stroke-linecap:butt;stroke-linejoin:miter;stroke-dasharray:none"
         id="g172">
        <path
           d="M 0.395,4.6084 C 0.215,3.7802 0,2.8437 0.612,1.7285 C 1.007,0.9716 1.656,1.08 1.656,0.54 C 1.656,0.0361 4.608,0 4.608,0.5039 C 4.572,0.8642 5.4,1.0439 5.723,1.3681 C 6.444,2.0879 6.624,3.0957 6.66,3.5644 C 6.732,4.5361 6.66,4.6797 6.299,5.2558 C 5.904,5.832 5.003,6.1201 4.895,6.084 C 4.679,5.9765 4.427,5.6884 3.996,5.0761 C 3.887,4.9326 4.86,4.6445 4.967,3.7802 C 5.003,3.2041 4.5,2.5918 3.851,2.3037 C 3.456,2.0879 2.843,2.0879 2.412,2.4843 C 1.979,2.8799 1.872,3.3838 1.979,4.0683 C 2.087,4.7158 2.916,5.04 2.807,5.1845 C 2.7,5.3281 2.196,5.9765 1.763,6.084 C 1.223,6.2636 0.503,5.0039 0.395,4.6084 z "
           id="path174" />
      </g>
      <g
         transform="translate(357.3,45.0752)"
         style="fill:#ffff00;fill-rule:evenodd;stroke:none;stroke-width:0.036pt;stroke-linecap:butt;stroke-linejoin:miter;stroke-dasharray:none"
         id="g176">
        <path
           d="M 0.323,4.5361 C 0.179,3.708 0,2.7363 0.647,1.6562 C 1.08,0.9004 1.727,1.0439 1.763,0.54 C 1.8,0 4.716,0.1445 4.679,0.6484 C 4.643,0.9726 5.471,1.1885 5.796,1.5478 C 6.443,2.3047 6.588,3.3125 6.588,3.7803 C 6.66,4.752 6.552,4.8965 6.155,5.4727 C 5.76,6.0127 4.823,6.2285 4.716,6.1924 C 4.5,6.1201 4.283,5.7959 3.888,5.1484 C 3.779,5.0039 4.788,4.7881 4.895,3.9238 C 4.968,3.3125 4.5,2.7002 3.888,2.376 C 3.491,2.1602 2.844,2.124 2.412,2.5205 C 1.943,2.8799 1.836,3.3848 1.907,4.0322 C 1.979,4.7168 2.807,5.0762 2.664,5.2207 C 2.555,5.3643 2.015,5.9766 1.62,6.084 C 1.08,6.2285 0.395,4.9326 0.323,4.5361 z "
           id="path178" />
      </g>
      <g
         transform="translate(312.3,30.207)"
         style="fill:#a1a1a1;fill-rule:evenodd;stroke:none;stroke-width:0.036pt;stroke-linecap:butt;stroke-linejoin:miter;stroke-dasharray:none"
         id="g180">
        <path
           d="M 7.416,0.3965 C 7.775,1.045 7.559,3.5645 7.344,4.1407 C 7.199,4.5723 5.615,3.708 4.139,4.0323 C 2.952,4.3203 2.555,5.2207 2.052,5.0401 C 1.62,4.8965 0,2.7002 0,2.2325 C 0,1.6563 2.34,0.6485 3.744,0.3965 C 5.508,0.1084 7.164,0 7.416,0.3965 z "
           id="path182" />
      </g>
      <g
         transform="translate(308.88,33.9512)"
         style="fill:#a1a1a1;fill-rule:evenodd;stroke:none;stroke-width:0.036pt;stroke-linecap:butt;stroke-linejoin:miter;stroke-dasharray:none"
         id="g184">
        <path
           d="M 2.195,0 C 2.916,0 4.067,1.6201 4.464,2.0879 C 4.716,2.4482 4.5,2.4121 4.103,3.8886 C 3.779,5.04 3.888,4.7519 3.563,5.0039 C 3.203,5.2558 0.935,4.7519 0.468,4.5722 C 0.216,4.4638 0,3.5644 0.468,2.1963 C 1.08,0.54 1.727,0 2.195,0 z "
           id="path186" />
      </g>
      <g
         transform="translate(308.844,39.6396)"
         style="fill:#a1a1a1;fill-rule:evenodd;stroke:none;stroke-width:0.036pt;stroke-linecap:butt;stroke-linejoin:miter;stroke-dasharray:none"
         id="g188">
        <path
           d="M 0.359,0.3243 C 1.008,0 3.023,0.3956 3.275,0.5762 C 3.599,0.8643 3.744,1.3682 3.744,2.8438 C 3.744,4.0323 3.744,4.4278 3.347,4.8243 C 3.023,5.1124 1.151,5.0401 0.828,4.8243 C 0.324,4.5 0.252,3.9961 0.179,2.5557 C 0.107,1.7999 0,0.504 0.359,0.3243 z "
           id="path190" />
      </g>
      <g
         transform="translate(352.079,29.9912)"
         style="fill:#a1a1a1;fill-rule:evenodd;stroke:none;stroke-width:0.036pt;stroke-linecap:butt;stroke-linejoin:miter;stroke-dasharray:none"
         id="g192">
        <path
           d="M 0.36,0.3965 C 0,1.044 0.181,3.5645 0.397,4.1406 C 0.576,4.5361 2.124,3.6719 3.565,4.0322 C 4.752,4.2842 5.112,5.2207 5.616,5.0401 C 6.049,4.8965 7.633,2.6641 7.633,2.1963 C 7.633,1.6563 5.328,0.6123 3.96,0.3965 C 2.233,0.1084 0.576,0 0.36,0.3965 z "
           id="path194" />
      </g>
      <g
         transform="translate(358.415,33.6992)"
         style="fill:#a1a1a1;fill-rule:evenodd;stroke:none;stroke-width:0.036pt;stroke-linecap:butt;stroke-linejoin:miter;stroke-dasharray:none"
         id="g196">
        <path
           d="M 2.484,0.0362 C 1.765,0 0.685,1.6563 0.288,2.124 C 0,2.4483 0.217,2.4483 0.612,3.8887 C 0.937,5.0762 0.828,4.7881 1.152,5.0039 C 1.513,5.292 3.744,4.752 4.177,4.6084 C 4.465,4.5 4.645,3.5645 4.177,2.2324 C 3.601,0.5401 2.952,0.0362 2.484,0.0362 z "
           id="path198" />
      </g>
      <g
         transform="translate(359.424,39.3877)"
         style="fill:#a1a1a1;fill-rule:evenodd;stroke:none;stroke-width:0.036pt;stroke-linecap:butt;stroke-linejoin:miter;stroke-dasharray:none"
         id="g200">
        <path
           d="M 3.347,0.3242 C 2.699,0 0.72,0.4316 0.468,0.6113 C 0.143,0.8994 0,1.4043 0,2.8799 C 0,4.0674 0,4.4639 0.359,4.8242 C 0.72,5.1475 2.555,5.0762 2.88,4.8242 C 3.347,4.5 3.456,3.9961 3.527,2.5557 C 3.563,1.8359 3.672,0.5039 3.347,0.3242 z "
           id="path202" />
      </g>
      <g
         transform="translate(323.819,48.6396)"
         style="fill:#a1a1a1;fill-rule:evenodd;stroke:none;stroke-width:0.036pt;stroke-linecap:butt;stroke-linejoin:miter;stroke-dasharray:none"
         id="g204">
        <path
           d="M 0,3.6358 C 0,1.6202 1.153,1.1524 1.153,0.6475 C 1.153,0 8.569,0.1075 8.533,0.6475 C 8.46,1.5118 9.937,1.7276 9.865,4.0323 C 9.828,5.9756 8.029,6.5157 8.136,7.2715 C 8.208,7.8116 1.764,7.7754 1.909,7.2002 C 2.017,6.7676 0,6.084 0,3.6358 z "
           id="path206" />
      </g>
      <g
         transform="translate(339.407,49.2158)"
         style="fill:#a1a1a1;fill-rule:evenodd;stroke:none;stroke-width:0.036pt;stroke-linecap:butt;stroke-linejoin:miter;stroke-dasharray:none"
         id="g208">
        <path
           d="M 0,3.4561 C 0,1.4756 1.836,1.1875 1.836,0.6114 C 1.836,0 7.92,0 7.884,0.5401 C 7.813,1.3682 9.649,1.584 9.613,3.8155 C 9.576,5.6875 7.813,6.2276 7.92,6.9473 C 7.992,7.4522 1.765,7.416 1.872,6.876 C 1.981,6.4434 0,5.7959 0,3.4561 z "
           id="path210" />
      </g>
      <g
         transform="translate(339.588,57.2432)"
         style="fill:#a1a1a1;fill-rule:evenodd;stroke:none;stroke-width:0.036pt;stroke-linecap:butt;stroke-linejoin:miter;stroke-dasharray:none"
         id="g212">
        <path
           d="M 0,3.4922 C 0,1.5127 1.872,1.2246 1.872,0.6484 C 1.872,0 8.136,0.0361 8.1,0.5761 C 8.027,1.4043 9.935,1.6201 9.899,3.8525 C 9.863,5.7607 8.027,6.3359 8.136,7.0566 C 8.208,7.5605 1.8,7.5244 1.943,6.9843 C 2.052,6.5527 0,5.9043 0,3.4922 z "
           id="path214" />
      </g>
      <g
         transform="translate(329.436,15.5557)"
         style="fill:#000000;fill-rule:evenodd;stroke:none;stroke-width:0.036pt;stroke-linecap:butt;stroke-linejoin:miter;stroke-dasharray:none"
         id="g216">
        <path
           d="M 0,2.7363 C 0,4.2119 1.152,5.4355 2.591,5.4355 C 4.032,5.4355 5.183,4.2119 5.183,2.7363 C 5.183,1.2236 4.032,0 2.591,0 C 1.152,0 0,1.2236 0,2.7363 z M 0.431,2.7002 C 0.431,3.8515 1.332,4.8242 2.484,4.8242 C 3.599,4.8242 4.536,3.8515 4.536,2.7002 C 4.536,1.5117 3.599,0.5761 2.484,0.5761 C 1.332,0.5761 0.431,1.5117 0.431,2.7002 z M 1.295,2.5918 C 1.295,3.4199 1.908,4.1035 2.664,4.1035 C 3.419,4.1035 4.032,3.4199 4.032,2.5918 C 4.032,1.7636 3.419,1.1162 2.664,1.1162 C 1.908,1.1162 1.295,1.7636 1.295,2.5918 z "
           id="path218" />
      </g>
      <g
         transform="translate(335.88,15.6279)"
         style="fill:#000000;fill-rule:evenodd;stroke:none;stroke-width:0.036pt;stroke-linecap:butt;stroke-linejoin:miter;stroke-dasharray:none"
         id="g220">
        <path
           d="M 0,2.7715 C 0,4.3194 1.187,5.544 2.664,5.544 C 4.14,5.544 5.327,4.3194 5.327,2.7715 C 5.327,1.2237 4.14,0 2.664,0 C 1.187,0 0,1.2237 0,2.7715 z M 0.683,2.7354 C 0.683,3.96 1.619,4.9317 2.808,4.9317 C 3.96,4.9317 4.643,3.9239 4.643,2.6992 C 4.643,1.5117 3.96,0.5752 2.808,0.5752 C 1.619,0.5752 0.683,1.5479 0.683,2.7354 z M 1.26,2.6641 C 1.26,3.4912 1.872,4.1397 2.628,4.1397 C 3.348,4.1397 3.96,3.4912 3.96,2.6641 C 3.96,1.836 3.348,1.1875 2.628,1.1875 C 1.872,1.1875 1.26,1.836 1.26,2.6641 z "
           id="path222" />
      </g>
      <g
         transform="translate(320.399,26.2471)"
         style="fill:#e0e0e0;fill-rule:evenodd;stroke:none;stroke-width:0.036pt;stroke-linecap:butt;stroke-linejoin:miter;stroke-dasharray:none"
         id="g224">
        <path
           d="M 1.405,1.1162 C 2.449,0.1806 27.504,0 30.168,0.792 C 31.428,1.1523 30.781,16.5605 30.277,20.8808 C 30.132,21.9961 0.972,21.8164 0.792,20.8086 C 0.037,16.7041 0,2.3759 1.405,1.1162 z "
           id="path226" />
      </g>
      <g
         transform="translate(324.647,30.0273)"
         style="fill:#000000;fill-rule:evenodd;stroke:none;stroke-width:0.036pt;stroke-linecap:butt;stroke-linejoin:miter;stroke-dasharray:none"
         id="g228">
        <path
           d="M 0.109,0.2159 C 0.216,0.0362 4.392,0 4.644,0.1797 C 4.752,0.2881 4.752,3.4561 4.573,3.6358 C 4.392,3.8526 0.397,3.8165 0.18,3.6719 C 0.037,3.5284 0,0.504 0.109,0.2159 z "
           id="path230" />
      </g>
      <g
         transform="translate(325.655,30.7471)"
         style="fill:#0000ff;fill-rule:evenodd;stroke:none;stroke-width:0.036pt;stroke-linecap:butt;stroke-linejoin:miter;stroke-dasharray:none"
         id="g232">
        <path
           d="M 0.036,0.1445 C 0.109,0 2.557,0 2.7,0.1084 C 2.809,0.1806 2.773,2.0527 2.664,2.1601 C 2.557,2.2685 0.216,2.2685 0.109,2.1601 C 0,2.0888 0,0.2881 0.036,0.1445 z "
           id="path234" />
      </g>
      <g
         transform="translate(336.455,34.6357)"
         style="fill:#000000;fill-rule:evenodd;stroke:none;stroke-width:0.036pt;stroke-linecap:butt;stroke-linejoin:miter;stroke-dasharray:none"
         id="g236">
        <path
           d="M 0.217,0.5401 C 0.433,0.0713 9.937,0 10.513,0.4678 C 10.801,0.6836 10.765,8.2442 10.368,8.6397 C 9.937,9.1075 0.828,9.0713 0.397,8.6758 C 0.072,8.3877 0,1.1875 0.217,0.5401 z "
           id="path238" />
      </g>
      <g
         transform="translate(337.607,35.6074)"
         style="fill:#0000ff;fill-rule:evenodd;stroke:none;stroke-width:0.036pt;stroke-linecap:butt;stroke-linejoin:miter;stroke-dasharray:none"
         id="g240">
        <path
           d="M 0.216,0.4317 C 0.361,0.0362 7.956,0 8.424,0.3604 C 8.64,0.5401 8.64,6.5518 8.317,6.9121 C 7.956,7.2725 0.684,7.2364 0.361,6.9483 C 0.073,6.6963 0,0.9365 0.216,0.4317 z "
           id="path242" />
      </g>
      <g
         transform="translate(330.479,29.9912)"
         style="fill:#000000;fill-rule:evenodd;stroke:none;stroke-width:0.036pt;stroke-linecap:butt;stroke-linejoin:miter;stroke-dasharray:none"
         id="g244">
        <path
           d="M 0.109,0.252 C 0.18,0.0361 4.392,0 4.644,0.1807 C 4.752,0.2881 4.752,3.4922 4.573,3.6719 C 4.357,3.8526 0.361,3.8526 0.18,3.6719 C 0.037,3.5283 0,0.5039 0.109,0.252 z "
           id="path246" />
      </g>
      <g
         transform="translate(331.451,30.7119)"
         style="fill:#0000ff;fill-rule:evenodd;stroke:none;stroke-width:0.036pt;stroke-linecap:butt;stroke-linejoin:miter;stroke-dasharray:none"
         id="g248">
        <path
           d="M 0.072,0.1436 C 0.145,0.0352 2.593,0 2.737,0.1074 C 2.809,0.1797 2.809,2.0518 2.7,2.1592 C 2.593,2.2676 0.217,2.2676 0.109,2.1592 C 0.036,2.0879 0,0.2871 0.072,0.1436 z "
           id="path250" />
      </g>
      <g
         transform="translate(324.72,34.96)"
         style="fill:#000000;fill-rule:evenodd;stroke:none;stroke-width:0.036pt;stroke-linecap:butt;stroke-linejoin:miter;stroke-dasharray:none"
         id="g252">
        <path
           d="M 0.107,0.2158 C 0.179,0.0351 4.391,0 4.607,0.1796 C 4.752,0.2871 4.752,3.455 4.571,3.6357 C 4.355,3.8154 0.359,3.8154 0.179,3.6718 C 0.036,3.5273 0,0.5039 0.107,0.2158 z "
           id="path254" />
      </g>
      <g
         transform="translate(325.691,35.6797)"
         style="fill:#0000ff;fill-rule:evenodd;stroke:none;stroke-width:0.036pt;stroke-linecap:butt;stroke-linejoin:miter;stroke-dasharray:none"
         id="g256">
        <path
           d="M 0.073,0.1435 C 0.109,0 2.592,0 2.737,0.1074 C 2.808,0.1435 2.808,2.0517 2.701,2.1601 C 2.592,2.2676 0.216,2.2676 0.109,2.1601 C 0.037,2.0879 0,0.2881 0.073,0.1435 z "
           id="path258" />
      </g>
      <g
         transform="translate(330.552,34.9238)"
         style="fill:#000000;fill-rule:evenodd;stroke:none;stroke-width:0.036pt;stroke-linecap:butt;stroke-linejoin:miter;stroke-dasharray:none"
         id="g260">
        <path
           d="M 0.107,0.2158 C 0.179,0.0362 4.355,0 4.607,0.1797 C 4.752,0.2881 4.752,3.4912 4.571,3.6358 C 4.355,3.8516 0.359,3.8155 0.179,3.6719 C 0.036,3.5274 0,0.5039 0.107,0.2158 z "
           id="path262" />
      </g>
      <g
         transform="translate(331.523,35.6436)"
         style="fill:#0000ff;fill-rule:evenodd;stroke:none;stroke-width:0.036pt;stroke-linecap:butt;stroke-linejoin:miter;stroke-dasharray:none"
         id="g264">
        <path
           d="M 0.073,0.1435 C 0.109,0 2.592,0 2.737,0.1084 C 2.808,0.1796 2.808,2.0517 2.701,2.1601 C 2.592,2.2675 0.216,2.2675 0.109,2.1601 C 0.037,2.0878 0,0.288 0.073,0.1435 z "
           id="path266" />
      </g>
      <g
         transform="translate(324.899,39.7832)"
         style="fill:#000000;fill-rule:evenodd;stroke:none;stroke-width:0.036pt;stroke-linecap:butt;stroke-linejoin:miter;stroke-dasharray:none"
         id="g268">
        <path
           d="M 0.109,0.252 C 0.18,0.0361 4.357,0 4.609,0.1807 C 4.752,0.2881 4.716,3.4922 4.537,3.6719 C 4.357,3.8525 0.361,3.8525 0.18,3.6719 C 0.037,3.5283 0,0.5039 0.109,0.252 z "
           id="path270" />
      </g>
      <g
         transform="translate(325.871,40.5039)"
         style="fill:#ff0000;fill-rule:evenodd;stroke:none;stroke-width:0.036pt;stroke-linecap:butt;stroke-linejoin:miter;stroke-dasharray:none"
         id="g272">
        <path
           d="M 0.072,0.1436 C 0.108,0.0352 2.593,0 2.736,0.1074 C 2.809,0.1797 2.809,2.0518 2.7,2.1592 C 2.593,2.2676 0.217,2.2676 0.108,2.1592 C 0.036,2.0879 0,0.2881 0.072,0.1436 z "
           id="path274" />
      </g>
      <g
         transform="translate(330.695,39.7471)"
         style="fill:#000000;fill-rule:evenodd;stroke:none;stroke-width:0.036pt;stroke-linecap:butt;stroke-linejoin:miter;stroke-dasharray:none"
         id="g276">
        <path
           d="M 0.145,0.2519 C 0.216,0.0361 4.393,0 4.645,0.2168 C 4.788,0.2881 4.752,3.4922 4.573,3.6728 C 4.393,3.8525 0.397,3.8525 0.216,3.6728 C 0.073,3.5644 0,0.5049 0.145,0.2519 z "
           id="path278" />
      </g>
      <g
         transform="translate(331.703,40.4678)"
         style="fill:#0000ff;fill-rule:evenodd;stroke:none;stroke-width:0.036pt;stroke-linecap:butt;stroke-linejoin:miter;stroke-dasharray:none"
         id="g280">
        <path
           d="M 0.072,0.1435 C 0.109,0.0361 2.593,0 2.736,0.1074 C 2.809,0.1797 2.809,2.0517 2.7,2.1601 C 2.593,2.2676 0.217,2.2676 0.109,2.1601 C 0.036,2.0879 0,0.3242 0.072,0.1435 z "
           id="path282" />
      </g>
      <path
         style="fill:#000000;fill-rule:evenodd;stroke:none;stroke-width:0.036pt;stroke-linecap:butt;stroke-linejoin:miter;stroke-dasharray:none"
         id="path286"
         d="M 336.527,30.2432 C 336.6,30.0273 340.812,29.9912 341.063,30.207 C 341.172,30.3154 341.172,33.4834 340.991,33.6631 C 340.775,33.8438 336.779,33.8438 336.6,33.6631 C 336.455,33.5557 336.42,30.5313 336.527,30.2432 z " />
      <g
         transform="translate(337.392,30.7119)"
         style="fill:#ff0000;fill-rule:evenodd;stroke:none;stroke-width:0.036pt;stroke-linecap:butt;stroke-linejoin:miter;stroke-dasharray:none"
         id="g288">
        <path
           d="M 0.072,0.1436 C 0.143,0.0352 2.591,0 2.736,0.1436 C 2.807,0.1797 2.807,2.0518 2.7,2.1592 C 2.591,2.2676 0.252,2.2676 0.143,2.1953 C 0.036,2.0879 0,0.3233 0.072,0.1436 z "
           id="path290" />
      </g>
      <g
         transform="translate(342.252,29.9912)"
         style="fill:#000000;fill-rule:evenodd;stroke:none;stroke-width:0.036pt;stroke-linecap:butt;stroke-linejoin:miter;stroke-dasharray:none"
         id="g292">
        <path
           d="M 0.107,0.2158 C 0.18,0.0361 4.355,0 4.607,0.1807 C 4.752,0.2881 4.752,3.4561 4.571,3.6367 C 4.355,3.8164 0.359,3.8164 0.18,3.6719 C 0.035,3.5283 0,0.5039 0.107,0.2158 z "
           id="path294" />
      </g>
      <g
         transform="translate(343.224,30.7119)"
         style="fill:#ff0000;fill-rule:evenodd;stroke:none;stroke-width:0.036pt;stroke-linecap:butt;stroke-linejoin:miter;stroke-dasharray:none"
         id="g296">
        <path
           d="M 0.072,0.1436 C 0.107,0 2.591,0 2.736,0.1074 C 2.807,0.1436 2.807,2.0518 2.7,2.1592 C 2.591,2.2676 0.215,2.2676 0.107,2.1592 C 0.036,2.0879 0,0.2871 0.072,0.1436 z "
           id="path298" />
      </g>
    </g>
  </g>
  <g
     id="g5185"
     transform="matrix(1.4492254,0,0,1.4492254,-159.25998,-16.335164)">
    <path
       transform="matrix(2.4919355,0,0,1.9999999,-345.09678,-94.249994)"
       d="M 220.5 97.625 A 15.5 3.875 0 1 1  189.5,97.625 A 15.5 3.875 0 1 1  220.5 97.625 z"
       sodipodi:ry="3.875"
       sodipodi:rx="15.5"
       sodipodi:cy="97.625"
       sodipodi:cx="205"
       id="path5102"
       style="opacity:0.65;fill:#000000;fill-opacity:1;fill-rule:evenodd;stroke:none;stroke-width:2;stroke-linecap:round;stroke-linejoin:round;stroke-miterlimit:4;stroke-dasharray:none;stroke-opacity:1;filter:url(#filter5209)"
       sodipodi:type="arc" />
    <g
       transform="matrix(0.5901167,-7.6980998e-2,7.6980998e-2,0.5901167,80.386549,11.169842)"
       id="g2732">
      <g
         transform="translate(-0.220695,-0.848633)"
         style="fill:#ffffff;fill-rule:evenodd;stroke:none;stroke-width:0.036pt;stroke-linecap:butt;stroke-linejoin:miter;stroke-dasharray:none"
         id="g2711" />
      <g
         transform="translate(21.660012,16.626074)"
         id="g2742">
        <g
           id="g2715"
           style="fill:#a16121;fill-rule:evenodd;stroke:#000000;stroke-width:2;stroke-linecap:butt;stroke-linejoin:miter;stroke-miterlimit:4;stroke-dasharray:none"
           transform="translate(96.9072,20.1758)">
          <path
             style="stroke-width:2;stroke-miterlimit:4;stroke-dasharray:none"
             id="path2717"
             d="M 1.0078,35.6758 C 0.6485,26.5312 0,21.3476 0.9004,12.3838 C 1.5127,6.1553 3.3488,1.8359 5.4368,0 C 5.4368,0 9.8278,2.8076 9.8278,2.8076 C 6.8758,5.3281 5.4368,10.2597 5.2208,15.9834 C 4.8968,25.1279 5.9048,29.7715 6.8398,37.6201 C 6.8398,37.6201 1.0088,35.6767 1.0088,35.6767 C 1.0088,35.6767 1.0078,35.6758 1.0078,35.6758 z " />
        </g>
        <g
           id="g2719"
           style="fill:#ff1e00;fill-rule:evenodd;stroke:#000000;stroke-width:2;stroke-linecap:butt;stroke-linejoin:miter;stroke-miterlimit:4;stroke-dasharray:none"
           transform="translate(34.1953,43.5391)">
          <path
             sodipodi:nodetypes="ccccsccccc"
             style="stroke-width:2;stroke-miterlimit:4;stroke-dasharray:none"
             id="path2721"
             d="M 48.708,1.9082 C 37.4766,0.3964 35.9277,0 24.6602,4.0322 C 4.2842,11.3408 0,40.8964 2.7363,56.8809 C 7.0205,82.0799 3.0606,96.7319 27.1446,109.836 C 35.8203,114.553 47.916,110.916 55.1162,111.24 C 62.3164,111.565 66.7807,117.612 76.0687,115.74 C 106.309,109.62 103.788,95.8679 116.533,66.6729 C 127.405,41.8321 126.901,36.0361 116.641,20.3047 C 106.344,4.5722 88.7037,2.4483 77.9407,3.7441 C 60.6963,5.7969 69.367933,5.9570602 48.708,1.9082 z " />
        </g>
        <g
           id="g2723"
           style="opacity:0.73999999;fill:url(#linearGradient5223);fill-opacity:1;fill-rule:evenodd;stroke:none;stroke-width:0.036pt;stroke-linecap:butt;stroke-linejoin:miter;stroke-dasharray:none;filter:url(#filter3362)"
           transform="translate(48.8115,50.2715)">
          <path
             id="path2725"
             d="M 2.8799,11.9521 C 6.1580275,3.3134707 18.650034,-0.35952894 23.522385,2.0306567 C 77.297427,28.410601 -16.585356,63.247584 2.8799,11.9521 z "
             style="fill:url(#linearGradient5225);fill-opacity:1"
             sodipodi:nodetypes="css" />
        </g>
      </g>
    </g>
  </g>
  <path
     id="path2285"
     style="font-size:12px;font-style:normal;font-weight:normal;fill:#000000;fill-opacity:1;stroke:none;stroke-width:1px;stroke-linecap:butt;stroke-linejoin:miter;stroke-opacity:1;font-family:Bitstream Vera Sans"
     d="M 58.766272,84.072105 C 57.79421,83.946844 57.101688,82.652794 56.688709,80.189954 C 56.530465,79.250643 56.390906,77.624543 56.270087,75.311655 C 55.174256,75.3134 53.731422,75.382732 51.941534,75.519649 L 47.61915,75.805016 C 46.921316,77.052642 45.77014,78.859568 44.165596,81.22579 C 43.754999,81.744656 43.259168,81.966651 42.678078,81.891772 C 42.255459,81.837312 41.896504,81.643011 41.601217,81.308862 C 41.305955,80.974715 41.186122,80.591705 41.241773,80.159835 C 41.303894,79.677747 42.337802,77.947603 44.34344,74.969392 C 44.197465,74.68512 44.146493,74.372245 44.190498,74.030758 C 44.295327,73.217243 44.880344,72.761693 45.94552,72.664108 C 47.426935,70.670016 49.266736,68.395371 51.464926,65.840159 C 54.459439,62.35636 56.263093,60.653933 56.875913,60.732878 C 57.710544,60.840451 58.209905,61.466364 58.373967,62.610613 L 58.720122,67.801194 L 59.732305,78.575831 L 60.328912,81.072547 C 60.53045,81.92555 60.613761,82.487639 60.578845,82.758815 C 60.523167,83.190683 60.312829,83.531149 59.947778,83.780206 C 59.5827,84.029259 59.188865,84.12656 58.766272,84.072105 L 58.766272,84.072105 z M 55.390772,66.131626 L 49.963219,72.492634 C 51.281771,72.346037 53.269047,72.21923 55.925133,72.112231 L 55.390772,66.131626 z " />
  <path
     id="path2281"
     style="font-size:12px;font-style:normal;font-weight:normal;fill:#000000;fill-opacity:1;stroke:none;stroke-width:1px;stroke-linecap:butt;stroke-linejoin:miter;stroke-opacity:1;font-family:Bitstream Vera Sans"
     d="M 74.185639,80.941311 C 72.598904,82.08824 70.455556,82.901477 67.755602,83.381022 C 67.423891,83.439937 67.075282,83.30278 66.709735,82.969561 C 66.344169,82.636345 66.125014,82.264835 66.052229,81.85504 L 65.313383,77.695144 C 65.071332,76.332346 64.795465,74.375873 64.485758,71.825722 C 64.155932,69.072722 63.890411,67.084918 63.68917,65.86231 C 63.525747,64.986923 63.336271,63.673767 63.120783,61.922823 C 63.090145,61.436749 63.161564,61.099649 63.335061,60.91152 C 64.313097,60.324941 65.469376,59.913127 66.803917,59.676074 C 68.161611,59.434954 69.566868,59.775208 71.01967,60.69684 C 72.695809,61.755802 73.705671,63.252579 74.049298,65.187172 C 74.484295,67.636427 74.055654,69.703284 72.763335,71.387754 C 74.028775,71.792173 75.014874,72.315016 75.721613,72.956281 C 76.428334,73.597563 76.859567,74.356584 77.01529,75.233347 C 77.220104,76.386499 76.912867,77.591262 76.0936,78.847645 C 75.527005,79.734742 74.89103,80.432625 74.185639,80.941311 L 74.185639,80.941311 z M 67.321871,62.592288 C 66.481034,62.74165 65.896824,62.879821 65.569256,63.006797 L 65.990435,65.512561 L 66.741595,71.085898 C 67.857323,71.005712 68.452899,70.954001 68.52836,70.930756 C 69.672878,70.609516 70.546017,69.992393 71.147774,69.079378 C 71.79168,68.090092 71.995144,66.928335 71.75819,65.5941 C 71.59737,64.68876 71.04344,63.922039 70.096358,63.293943 C 69.149263,62.665885 68.224428,62.432003 67.321871,62.592288 L 67.321871,62.592288 z M 70.65158,73.812541 L 69.381875,73.787369 C 69.281596,73.805191 69.130508,73.839397 68.928631,73.889989 C 68.726738,73.940604 68.571799,73.975497 68.463795,73.994669 C 68.047229,74.068667 67.596047,74.104564 67.110251,74.102361 C 67.277237,75.311383 67.444517,76.387631 67.612109,77.331102 L 68.13768,80.290204 C 70.143538,79.845466 71.72787,79.200331 72.890699,78.354798 C 73.384974,78.001582 73.830733,77.50952 74.227975,76.878606 C 74.610498,76.299472 74.779763,75.88601 74.735773,75.638217 C 74.6562,75.190312 74.072784,74.772904 72.985524,74.385993 C 72.168779,74.088682 71.39081,73.897527 70.65158,73.812541 L 70.65158,73.812541 z " />
  <path
     style="font-size:12px;font-style:normal;font-weight:normal;fill:#000000;fill-opacity:1;stroke:none;stroke-width:1px;stroke-linecap:butt;stroke-linejoin:miter;stroke-opacity:1;font-family:Bitstream Vera Sans"
     d="M 91.141327,65.486547 C 90.582493,65.656613 90.067627,65.469531 89.596729,64.925303 C 89.188839,64.462767 88.86225,64.204646 88.616938,64.15094 C 88.405494,64.114463 87.937385,64.20649 87.212656,64.427004 C 85.946533,64.812295 84.824079,66.171358 83.845314,68.50419 C 82.510464,71.642072 82.183861,74.331056 82.865508,76.571144 C 83.194845,77.65344 83.8406,78.474449 84.802773,79.034165 C 85.790066,79.613746 86.807623,79.744111 87.855445,79.425263 C 88.754818,79.151591 89.590917,78.654251 90.363721,77.933252 C 90.793574,77.527451 91.420068,76.795978 92.243248,75.738812 C 92.633726,75.234994 92.955586,74.944551 93.208828,74.867486 C 93.584279,74.753244 93.940101,74.793929 94.276316,74.989535 C 94.61251,75.185157 94.831665,75.45076 94.933784,75.786351 C 95.04867,76.163899 94.983605,76.545783 94.738612,76.931999 C 93.030781,79.5967 90.998074,81.287748 88.64049,82.005147 C 86.832981,82.555163 85.101954,82.353149 83.447381,81.399116 C 81.849232,80.473751 80.782092,79.130133 80.245963,77.368256 C 79.380502,74.524099 79.733245,71.231327 81.304233,67.489914 C 82.615446,64.368418 84.323232,62.48749 86.427612,61.84712 C 86.855463,61.716944 87.24542,61.618908 87.597438,61.553023 C 87.949466,61.487174 88.269233,61.456328 88.556719,61.460495 C 88.732117,60.939641 89.064328,60.604798 89.553306,60.455984 C 90.155807,60.272669 90.651798,60.538827 91.041306,61.254454 C 91.387791,61.891543 91.711668,62.705079 92.012938,63.695059 C 92.117594,64.039067 92.113448,64.37033 92.000501,64.68885 C 91.86431,65.087811 91.577919,65.353711 91.141327,65.486547 L 91.141327,65.486547 z "
     id="path2275" />
  <path
     style="font-size:12px;font-style:normal;font-weight:normal;fill:#000000;fill-opacity:1;stroke:none;stroke-width:1px;stroke-linecap:butt;stroke-linejoin:miter;stroke-opacity:1;font-family:Bitstream Vera Sans"
     d="M 58.750794,113.99551 L 56.109746,114.24918 L 53.480582,114.4871 C 52.861259,114.54658 52.423544,114.5448 52.167474,114.48171 C 51.699552,114.35132 51.438705,114.00618 51.384933,113.44634 C 51.291296,112.47144 51.939019,111.91727 53.328104,111.78386 L 53.96653,111.73715 L 54.513434,111.71384 C 54.468934,111.25053 54.365511,110.56882 54.203164,109.66869 C 54.040795,108.76858 53.937835,108.09169 53.894259,107.63801 C 53.776519,106.41213 53.699334,104.53944 53.662725,102.01989 C 53.620972,99.539814 53.534463,97.663099 53.403252,96.389787 C 52.314073,97.507526 51.605793,98.082142 51.278429,98.113562 C 50.924524,98.147582 50.603166,98.032332 50.314352,97.767789 C 50.025521,97.503306 49.863027,97.182836 49.82689,96.80634 C 49.783296,96.352707 50.110904,95.765955 50.809695,95.046157 C 51.252249,94.633481 51.872549,93.979672 52.670595,93.084708 C 53.366659,92.150868 54.068621,91.649947 54.776435,91.581939 C 55.369235,91.525026 55.701327,91.868181 55.772711,92.611405 C 55.794037,92.833429 55.799245,93.166574 55.788335,93.610852 C 55.777427,94.055162 55.782634,94.388307 55.803977,94.610288 C 55.834552,94.928855 55.896399,95.409987 55.989476,96.053706 C 56.082558,96.69748 56.144404,97.178616 56.174997,97.497136 C 56.280688,98.597558 56.332112,100.2487 56.329315,102.45055 C 56.32647,104.6524 56.377453,106.29871 56.482214,107.38944 C 56.535988,107.9493 56.636729,108.6264 56.784482,109.42076 C 56.932192,110.21514 57.035053,110.86766 57.093045,111.3784 L 58.483788,111.21558 C 58.855362,111.17991 59.175585,111.28308 59.44439,111.52519 C 59.713193,111.76725 59.866598,112.08616 59.904632,112.4819 C 59.94355,112.88734 59.85388,113.23203 59.635605,113.51601 C 59.417328,113.79999 59.122369,113.95983 58.750794,113.99551 L 58.750794,113.99551 z "
     id="path2273" />
  <path
     style="font-size:12px;font-style:normal;font-weight:normal;fill:#000000;fill-opacity:1;stroke:none;stroke-width:1px;stroke-linecap:butt;stroke-linejoin:miter;stroke-opacity:1;font-family:Bitstream Vera Sans"
     d="M 73.474133,113.63705 C 73.251914,113.63705 72.938587,113.56191 72.534174,113.41159 C 72.129738,113.26131 71.820871,113.18614 71.607572,113.18614 C 71.154238,113.18614 70.474293,113.21523 69.567669,113.27342 C 68.661045,113.3316 67.97664,113.36067 67.514453,113.36067 C 67.167791,113.36067 66.654499,113.40918 65.974532,113.50614 C 65.294563,113.60312 64.781249,113.65159 64.434609,113.65159 C 64.336834,113.65159 64.194618,113.63221 64.007965,113.5934 C 63.821311,113.55463 63.679097,113.53524 63.581322,113.53524 C 62.968024,113.53524 62.568048,113.21039 62.381393,112.56069 C 62.274722,112.22129 62.221408,111.6395 62.221408,110.81524 C 62.221408,108.55586 62.785806,106.73768 63.91465,105.36071 C 64.430172,104.73043 65.821213,103.56678 68.087749,101.8698 C 69.358784,100.91952 70.207634,100.17771 70.634278,99.644344 C 71.398664,98.713448 71.780869,97.622539 71.780892,96.371607 C 71.780869,95.751016 71.411998,95.198293 70.674279,94.713426 C 70.025417,94.277077 69.389889,94.058907 68.767717,94.058886 C 67.949972,94.058907 67.172229,94.315864 66.43451,94.829789 L 64.527947,96.458877 C 64.145743,96.78859 63.839081,96.953433 63.607988,96.953423 C 62.692492,96.953433 62.23472,96.55586 62.234742,95.760691 C 62.23472,95.304959 62.403603,94.912235 62.741367,94.582518 C 63.781308,93.51587 64.683496,92.744967 65.447905,92.269797 C 66.523388,91.600727 67.63,91.266184 68.767717,91.266161 C 70.207634,91.266184 71.492002,91.69285 72.620846,92.546158 C 73.882983,93.506173 74.514052,94.73769 74.514075,96.240697 C 74.514052,97.229816 74.385171,98.141332 74.127433,98.975261 C 73.869649,99.809207 73.47857,100.57043 72.954151,101.25889 C 72.287517,102.13164 71.158697,103.10618 69.567669,104.18254 C 67.896636,105.32678 66.798921,106.19465 66.274524,106.78616 C 65.287895,107.90132 64.803478,109.25404 64.821251,110.84433 L 67.56779,110.56796 C 69.452122,110.4516 70.798701,110.39342 71.607572,110.39342 C 72.28308,110.39342 72.923045,110.51947 73.527469,110.77162 C 74.327398,111.11099 74.727374,111.5813 74.727397,112.1825 C 74.727374,112.56069 74.60739,112.89766 74.367423,113.19341 C 74.12741,113.48917 73.829646,113.63705 73.474133,113.63705 L 73.474133,113.63705 z "
     id="path2271" />
  <path
     style="font-size:12px;font-style:normal;font-weight:normal;fill:#000000;fill-opacity:1;stroke:none;stroke-width:1px;stroke-linecap:butt;stroke-linejoin:miter;stroke-opacity:1;font-family:Bitstream Vera Sans"
     d="M 80.843528,113.92088 C 79.523774,113.67665 78.39509,113.15715 77.457458,112.36235 C 76.406345,111.44796 75.791861,110.32344 75.614004,108.98878 C 75.593318,108.80744 75.597979,108.63573 75.627995,108.47363 C 75.698552,108.09224 75.890506,107.79985 76.203855,107.59652 C 76.517193,107.39316 76.848638,107.32383 77.198242,107.38852 C 77.547843,107.45322 77.816735,107.68543 78.00491,108.08512 L 78.425337,109.18361 C 78.653513,109.70904 79.01257,110.13792 79.502483,110.47018 C 79.992396,110.80243 80.608783,111.03733 81.351705,111.17478 C 82.304359,111.3511 83.199015,111.18135 84.035699,110.6656 C 84.923111,110.11979 85.45858,109.35106 85.642107,108.35941 C 85.908527,106.91963 85.636069,105.68087 84.824739,104.64318 C 84.105854,103.74096 83.053468,103.0778 81.66759,102.65367 C 80.716848,102.36926 80.311174,101.85041 80.450591,101.09713 C 80.554675,100.53458 81.014288,100.17587 81.829357,100.02098 L 85.118815,99.756947 C 85.765982,99.630184 86.280001,99.392484 86.660921,99.043841 C 87.04179,98.695218 87.290424,98.230882 87.406804,97.650839 C 87.579554,96.81499 87.407678,96.083015 86.891184,95.45489 C 86.351959,94.802871 85.505516,94.370115 84.351846,94.156608 C 83.757513,94.046633 83.151562,94.097215 82.533976,94.308351 L 80.864618,95.049684 C 80.539137,95.196557 80.289005,95.253821 80.114203,95.221454 C 79.764596,95.156776 79.492155,94.955969 79.296884,94.619045 C 79.101627,94.282144 79.03838,93.927748 79.107199,93.55587 C 79.246592,92.802613 80.049309,92.201678 81.515361,91.753066 C 82.792466,91.34842 83.806832,91.215631 84.558486,91.354707 C 86.43758,91.702465 87.843928,92.431139 88.777576,93.540746 C 89.777457,94.731674 90.110699,96.228207 89.777211,98.030322 C 89.36255,100.27109 88.258735,101.59537 86.465813,102.00319 C 86.304862,102.04245 86.122087,102.07764 85.917474,102.1088 C 86.993409,102.79114 87.733786,103.65053 88.138606,104.68693 C 88.543402,105.72334 88.616986,106.93761 88.359386,108.32973 C 88.011762,110.20813 87.109222,111.69046 85.651758,112.77672 C 84.194249,113.86297 82.591514,114.24436 80.843528,113.92088 L 80.843528,113.92088 z "
     id="text2262"
     inkscape:transform-center-y="-3.6892061"
     inkscape:transform-center-x="-4.1503598" />
</svg>
