<?xml version="1.0" encoding="UTF-8" standalone="no"?>
<svg
   xmlns:dc="http://purl.org/dc/elements/1.1/"
   xmlns:cc="http://web.resource.org/cc/"
   xmlns:rdf="http://www.w3.org/1999/02/22-rdf-syntax-ns#"
   xmlns:svg="http://www.w3.org/2000/svg"
   xmlns="http://www.w3.org/2000/svg"
   xmlns:xlink="http://www.w3.org/1999/xlink"
   xmlns:sodipodi="http://sodipodi.sourceforge.net/DTD/sodipodi-0.dtd"
   xmlns:inkscape="http://www.inkscape.org/namespaces/inkscape"
   width="655"
   height="200"
   id="svg2"
   sodipodi:version="0.32"
   inkscape:version="0.45.1"
   sodipodi:docname="logo.svg"
   inkscape:output_extension="org.inkscape.output.svg.inkscape"
   sodipodi:docbase="C:\TEMP\touchandlearn\trunk\webpage\images"
   version="1.0"
   inkscape:export-filename="c:\TEMP\touchandlearn\trunk\webpage\header.png"
   inkscape:export-xdpi="90"
   inkscape:export-ydpi="90">
  <metadata
     id="metadata459">
    <rdf:RDF>
      <cc:Work
         rdf:about="">
        <dc:format>image/svg+xml</dc:format>
        <dc:type
           rdf:resource="http://purl.org/dc/dcmitype/StillImage" />
      </cc:Work>
    </rdf:RDF>
  </metadata>
  <defs
     id="defs457">
    <linearGradient
       id="linearGradient3237">
      <stop
         id="stop3239"
         offset="0"
         style="stop-color:#cccc99;stop-opacity:1;" />
      <stop
         id="stop3241"
         offset="1"
         style="stop-color:#ffffcc;stop-opacity:1" />
    </linearGradient>
    <linearGradient
       inkscape:collect="always"
       id="linearGradient5217">
      <stop
         style="stop-color:#ffffff;stop-opacity:1;"
         offset="0"
         id="stop5219" />
      <stop
         style="stop-color:#ffffff;stop-opacity:0;"
         offset="1"
         id="stop5221" />
    </linearGradient>
    <filter
       inkscape:collect="always"
       x="-0.20102964"
       width="1.4020593"
       y="-0.80411857"
       height="2.608237"
       id="filter5209">
      <feGaussianBlur
         inkscape:collect="always"
         stdDeviation="2.5966329"
         id="feGaussianBlur5211" />
    </filter>
    <filter
       inkscape:collect="always"
       x="-0.19843648"
       width="1.396873"
       y="-0.79374593"
       height="2.587492"
       id="filter5213">
      <feGaussianBlur
         inkscape:collect="always"
         stdDeviation="2.563138"
         id="feGaussianBlur5215" />
    </filter>
    <linearGradient
       inkscape:collect="always"
       xlink:href="#linearGradient5217"
       id="linearGradient5223"
       x1="12.042246"
       y1="8.3263264"
       x2="23.798826"
       y2="27.634771"
       gradientUnits="userSpaceOnUse" />
    <linearGradient
       inkscape:collect="always"
       xlink:href="#linearGradient5217"
       id="linearGradient5225"
       gradientUnits="userSpaceOnUse"
       x1="2.205663"
       y1="11.836136"
       x2="19.060959"
       y2="26.417589" />
    <linearGradient
       inkscape:collect="always"
       xlink:href="#linearGradient3237"
       id="linearGradient3233"
       x1="0"
       y1="0"
       x2="0"
       y2="199"
       gradientUnits="userSpaceOnUse" />
    <filter
       inkscape:collect="always"
       id="filter3362">
      <feGaussianBlur
         inkscape:collect="always"
         stdDeviation="0.79751716"
         id="feGaussianBlur3364" />
    </filter>
  </defs>
  <sodipodi:namedview
     inkscape:window-height="998"
     inkscape:window-width="1280"
     inkscape:pageshadow="2"
     inkscape:pageopacity="0.0"
     guidetolerance="10000"
     gridtolerance="10.0"
     objecttolerance="10.0"
     borderopacity="1.0"
     bordercolor="#666666"
     pagecolor="#ffffff"
     id="base"
     inkscape:zoom="1.4142137"
     inkscape:cx="330.97783"
     inkscape:cy="67.034658"
     inkscape:window-x="0"
     inkscape:window-y="0"
     inkscape:current-layer="svg2"
     width="655px"
     height="200px"
     showguides="true"
     inkscape:guide-bbox="true"
     inkscape:guide-points="true" />
  <rect
     style="opacity:1;fill:url(#linearGradient3233);fill-opacity:1;fill-rule:evenodd;stroke:none;stroke-width:2;stroke-linecap:round;stroke-linejoin:round;stroke-miterlimit:4;stroke-dasharray:none;stroke-opacity:1"
     id="rect2256"
     width="655"
     height="200"
     x="0"
     y="0" />
  <g
     id="g5104"
     transform="matrix(2.5751518,0,0,2.5751518,-430.85157,-79.531379)">
    <path
       transform="matrix(0.9274194,0,0,0.7741935,47.754032,13.169355)"
       d="M 220.5 97.625 A 15.5 3.875 0 1 1  189.5,97.625 A 15.5 3.875 0 1 1  220.5 97.625 z"
       sodipodi:ry="3.875"
       sodipodi:rx="15.5"
       sodipodi:cy="97.625"
       sodipodi:cx="205"
       id="path3827"
       style="opacity:0.65;fill:#000000;fill-opacity:1;fill-rule:evenodd;stroke:none;stroke-width:2;stroke-linecap:round;stroke-linejoin:round;stroke-miterlimit:4;stroke-dasharray:none;stroke-opacity:1;filter:url(#filter5213)"
       sodipodi:type="arc" />
    <g
       transform="matrix(0.5722547,1.4173981e-2,-1.4173981e-2,0.5722547,43.452476,39.898256)"
       id="g2612">
      <g
         transform="translate(306.216,5.00781)"
         style="fill:#000000;fill-rule:evenodd;stroke:none;stroke-width:0.036pt;stroke-linecap:butt;stroke-linejoin:miter;stroke-dasharray:none"
         id="g144">
        <path
           d="M 20.519,13.3555 C 21.239,11.3399 23.292,8.85549 23.544,8.53129 C 23.544,8.53129 16.129,0.75586 16.129,0.75586 C 16.129,0.75586 16.488,0.36035 16.488,0.36035 C 16.488,0.36035 23.903,8.09959 23.903,8.09959 C 24.624,7.30759 24.767,7.09179 26.136,6.44339 C 27.575,5.79589 29.555,5.58009 31.283,6.01169 C 32.723,6.40719 33.407,7.12789 34.092,7.66799 C 34.092,7.66799 41.399,0 41.399,0 C 41.399,0 41.795,0.32324 41.795,0.32324 C 41.795,0.32324 34.703,8.24319 34.703,8.24319 C 34.703,8.24319 34.704,8.24419 34.704,8.24419 C 35.063,8.78419 36.899,11.0156 38.16,13.3555 C 39.132,15.1914 39.42,17.2442 40.103,19.836 C 40.355,20.6641 43.092,20.0156 44.748,20.8438 C 46.367,21.6719 46.475,22.5713 46.548,23.4717 C 48.023,23.544 49.391,23.9033 51.552,24.4795 C 54.216,25.1279 55.8,27.3233 56.844,28.836 C 57.96,30.5635 57.779,31.4639 58.031,33.9834 C 58.103,34.8838 57.96,36.3233 57.96,39.2754 C 57.96,41.0762 59.004,40.3193 59.147,43.0918 C 59.292,45.8281 57.851,47.376 55.979,47.5195 C 55.872,47.5195 54.504,46.3682 54.252,46.332 C 53.891,46.2959 52.452,47.5918 52.235,47.4473 C 49.139,45.6113 49.319,42.3721 50.435,40.8955 C 50.903,40.2842 51.84,40.0313 51.84,39.2754 C 51.84,37.6201 52.055,35.3516 51.84,33.4434 C 51.588,31.5361 50.687,31.0674 49.464,30.5996 C 48.527,30.2393 47.592,30.4561 46.475,30.4199 C 46.439,33.1914 46.512,36.6475 46.187,39.9961 C 46.115,40.8955 46.044,43.7041 44.855,44.0996 C 44.855,44.0996 42.696,44.1348 42.696,44.1348 C 42.696,44.1348 42.695,44.1358 42.695,44.1358 C 43.92,45.0713 44.891,45.5039 44.891,47.7715 C 44.891,49.2842 43.055,50.2559 43.019,51.6602 C 42.947,52.8115 45.179,53.7481 44.964,56.4473 C 44.783,58.752 43.235,59.292 43.128,60.4795 C 43.055,61.668 44.891,61.0195 44.891,63.9356 C 44.891,66.3115 43.128,65.6992 43.128,67.6074 C 43.128,68.8682 45.647,69.0479 46.332,71.1358 C 46.836,72.7559 46.907,73.1152 46.512,74.6279 C 41.399,74.6279 36.828,74.916 30.996,74.7354 C 31.031,72.3594 30.744,73.2236 31.103,71.1719 C 31.464,69.084 33.443,68.6152 33.552,67.9317 C 33.767,66.4912 31.716,66.2393 31.788,64.1152 C 31.823,62.0273 33.947,61.5957 33.84,60.2637 C 33.66,58.6436 31.716,58.3193 31.788,55.7276 C 31.823,53.208 33.263,53.208 33.227,51.876 C 33.191,50.3994 31.103,50.292 31.428,47.5195 C 31.643,45.4678 32.76,44.8555 33.588,44.0274 C 33.588,44.0274 27.648,43.8477 27.648,43.8477 C 27.648,43.8477 27.647,43.8477 27.647,43.8477 C 28.475,44.8916 29.304,45.0713 29.267,48.0596 C 29.231,50.832 27.395,50.544 27.647,52.2715 C 27.828,53.6397 29.412,53.5674 29.267,56.2676 C 29.124,59.5078 27.323,59.3281 27.468,60.6602 C 27.611,62.0635 29.88,61.5957 29.592,64.332 C 29.304,66.9961 27.72,66.708 27.611,68.1836 C 27.504,69.2637 29.952,69.2637 30.059,70.9199 C 30.168,72.9717 30.347,72.7559 30.132,74.5557 C 23.76,74.8438 18.756,74.7354 13.319,74.7354 C 12.96,72.792 12.96,72.0713 14.292,69.9473 C 15.695,67.6436 17.891,68.0401 17.783,67.4277 C 17.496,66.168 15.767,66.3477 15.624,63.9356 C 15.552,62.1358 17.964,61.7041 18.036,60.5879 C 18.143,59.1475 15.876,58.5713 15.804,55.5479 C 15.767,53.208 18.179,53.3877 18.323,52.0195 C 18.504,50.3633 15.767,50.1836 15.695,48.0957 C 15.588,45.9717 16.235,44.46 17.279,43.668 C 17.279,43.668 14.651,43.6328 14.651,43.6328 C 14.651,43.6328 14.651,43.6318 14.651,43.6318 C 13.643,43.7393 13.248,43.7754 13.176,40.7158 C 13.103,37.1514 13.139,34.1641 13.176,31.1397 C 11.771,31.0674 10.475,30.4561 9.359,31.5713 C 8.279,32.6152 7.884,33.7315 7.92,34.7754 C 7.92,36.3233 7.848,37.3682 7.811,39.0235 C 7.739,40.8233 7.956,39.9961 9.071,41.3633 C 10.223,42.7315 10.044,46.2959 7.164,47.8076 C 6.84,47.9522 5.544,46.8721 5.004,46.8721 C 4.464,46.8721 3.023,48.1318 2.916,48.0596 C 1.08,47.376 0.54,45.4678 0.359,43.8838 C 0,40.7158 2.052,40.752 1.872,39.3477 C 1.548,36.8281 1.655,36.3594 1.62,34.8115 C 1.584,31.752 1.907,30.5274 2.807,29.0879 C 4.355,26.5674 5.435,25.5957 7.632,24.8399 C 10.115,23.9756 11.807,24.0117 13.571,24.084 C 13.536,22.2842 14.435,21.168 15.552,20.9873 C 16.775,20.8076 16.632,20.8438 18.468,20.5918 C 19.836,16.3799 19.008,17.4961 20.519,13.3555 z "
           id="path146" />
      </g>
      <g
         transform="translate(326.987,11.8838)"
         style="fill:#ffff00;fill-rule:evenodd;stroke:none;stroke-width:0.036pt;stroke-linecap:butt;stroke-linejoin:miter;stroke-dasharray:none"
         id="g148">
        <path
           d="M 0,13.7158 C 0.252,11.5918 0.649,8.8916 1.8,6.0478 C 2.664,3.8516 3.456,2.8799 4.788,1.8721 C 6.372,0.6836 7.884,0 10.296,1.0078 C 12.672,2.0156 13.788,3.9961 14.941,6.4433 C 16.416,9.7197 16.956,11.8076 17.172,13.4277 C 9.72,13.6797 6.804,13.6074 0,13.7158 z "
           id="path150" />
      </g>
      <g
         transform="translate(323.819,57.5313)"
         style="fill:#a1a1a1;fill-rule:evenodd;stroke:none;stroke-width:0.036pt;stroke-linecap:butt;stroke-linejoin:miter;stroke-dasharray:none"
         id="g152">
        <path
           d="M 0,3.456 C 0,1.4765 1.836,1.1884 1.836,0.6484 C 1.836,0 8.136,0.0361 8.101,0.54 C 8.029,1.4042 9.937,1.5839 9.865,3.8164 C 9.828,5.6884 8.029,6.2285 8.136,6.9482 C 8.208,7.4521 1.764,7.4521 1.909,6.8759 C 2.052,6.4804 0,5.832 0,3.456 z "
           id="path154" />
      </g>
      <g
         transform="translate(323.315,65.3076)"
         style="fill:#a1a1a1;fill-rule:evenodd;stroke:none;stroke-width:0.036pt;stroke-linecap:butt;stroke-linejoin:miter;stroke-dasharray:none"
         id="g156">
        <path
           d="M 0.073,3.6358 C 0,2.4121 2.304,1.6563 2.233,0.9717 C 2.124,0 8.424,0.1797 8.497,1.0801 C 8.533,1.7275 10.693,2.2315 10.764,3.7803 C 10.909,6.0479 8.497,6.1201 8.605,6.7676 C 8.748,7.6319 2.016,7.8838 2.088,7.0557 C 2.124,6.2637 0.18,5.6875 0.073,3.6358 z "
           id="path158" />
      </g>
      <g
         transform="translate(339.695,65.668)"
         style="fill:#a1a1a1;fill-rule:evenodd;stroke:none;stroke-width:0.036pt;stroke-linecap:butt;stroke-linejoin:miter;stroke-dasharray:none"
         id="g160">
        <path
           d="M 0.073,3.1318 C 0,1.6914 1.765,1.1875 1.945,0.5039 C 2.124,0 8.569,0.0351 8.424,0.7558 C 8.281,1.584 10.008,1.331 9.973,3.6357 C 9.901,5.5791 7.956,5.5078 8.029,6.1552 C 8.136,7.3437 2.124,7.1992 2.017,6.4433 C 1.945,5.9756 0.109,5.2197 0.073,3.1318 z "
           id="path162" />
      </g>
      <g
         transform="translate(320.76,73.4072)"
         style="fill:#404040;fill-rule:evenodd;stroke:none;stroke-width:0.036pt;stroke-linecap:butt;stroke-linejoin:miter;stroke-dasharray:none"
         id="g164">
        <path
           d="M 2.555,1.044 C 4.067,0.2881 9.756,0 11.735,1.0801 C 13.464,2.0528 14.111,4.9326 13.284,5.0039 C 11.124,5.1485 3.708,5.3643 0.576,5.0401 C 0,5.0039 0.828,1.9082 2.555,1.044 z "
           id="path166" />
      </g>
      <g
         transform="translate(338.579,73.4434)"
         style="fill:#404040;fill-rule:evenodd;stroke:none;stroke-width:0.036pt;stroke-linecap:butt;stroke-linejoin:miter;stroke-dasharray:none"
         id="g168">
        <path
           d="M 1.692,1.2597 C 3.204,0.5039 8.389,0 10.368,1.1162 C 12.097,2.0517 13.105,5.1484 12.24,5.2197 C 10.08,5.3642 3.708,5.4004 0.576,5.1123 C 0,5.04 0,2.124 1.692,1.2597 z "
           id="path170" />
      </g>
      <g
         transform="translate(307.728,45.6514)"
         style="fill:#ffff00;fill-rule:evenodd;stroke:none;stroke-width:0.036pt;stroke-linecap:butt;stroke-linejoin:miter;stroke-dasharray:none"
         id="g172">
        <path
           d="M 0.395,4.6084 C 0.215,3.7802 0,2.8437 0.612,1.7285 C 1.007,0.9716 1.656,1.08 1.656,0.54 C 1.656,0.0361 4.608,0 4.608,0.5039 C 4.572,0.8642 5.4,1.0439 5.723,1.3681 C 6.444,2.0879 6.624,3.0957 6.66,3.5644 C 6.732,4.5361 6.66,4.6797 6.299,5.2558 C 5.904,5.832 5.003,6.1201 4.895,6.084 C 4.679,5.9765 4.427,5.6884 3.996,5.0761 C 3.887,4.9326 4.86,4.6445 4.967,3.7802 C 5.003,3.2041 4.5,2.5918 3.851,2.3037 C 3.456,2.0879 2.843,2.0879 2.412,2.4843 C 1.979,2.8799 1.872,3.3838 1.979,4.0683 C 2.087,4.7158 2.916,5.04 2.807,5.1845 C 2.7,5.3281 2.196,5.9765 1.763,6.084 C 1.223,6.2636 0.503,5.0039 0.395,4.6084 z "
           id="path174" />
      </g>
      <g
         transform="translate(357.3,45.0752)"
         style="fill:#ffff00;fill-rule:evenodd;stroke:none;stroke-width:0.036pt;stroke-linecap:butt;stroke-linejoin:miter;stroke-dasharray:none"
         id="g176">
        <path
           d="M 0.323,4.5361 C 0.179,3.708 0,2.7363 0.647,1.6562 C 1.08,0.9004 1.727,1.0439 1.763,0.54 C 1.8,0 4.716,0.1445 4.679,0.6484 C 4.643,0.9726 5.471,1.1885 5.796,1.5478 C 6.443,2.3047 6.588,3.3125 6.588,3.7803 C 6.66,4.752 6.552,4.8965 6.155,5.4727 C 5.76,6.0127 4.823,6.2285 4.716,6.1924 C 4.5,6.1201 4.283,5.7959 3.888,5.1484 C 3.779,5.0039 4.788,4.7881 4.895,3.9238 C 4.968,3.3125 4.5,2.7002 3.888,2.376 C 3.491,2.1602 2.844,2.124 2.412,2.5205 C 1.943,2.8799 1.836,3.3848 1.907,4.0322 C 1.979,4.7168 2.807,5.0762 2.664,5.2207 C 2.555,5.3643 2.015,5.9766 1.62,6.084 C 1.08,6.2285 0.395,4.9326 0.323,4.5361 z "
           id="path178" />
      </g>
      <g
         transform="translate(312.3,30.207)"
         style="fill:#a1a1a1;fill-rule:evenodd;stroke:none;stroke-width:0.036pt;stroke-linecap:butt;stroke-linejoin:miter;stroke-dasharray:none"
         id="g180">
        <path
           d="M 7.416,0.3965 C 7.775,1.045 7.559,3.5645 7.344,4.1407 C 7.199,4.5723 5.615,3.708 4.139,4.0323 C 2.952,4.3203 2.555,5.2207 2.052,5.0401 C 1.62,4.8965 0,2.7002 0,2.2325 C 0,1.6563 2.34,0.6485 3.744,0.3965 C 5.508,0.1084 7.164,0 7.416,0.3965 z "
           id="path182" />
      </g>
      <g
         transform="translate(308.88,33.9512)"
         style="fill:#a1a1a1;fill-rule:evenodd;stroke:none;stroke-width:0.036pt;stroke-linecap:butt;stroke-linejoin:miter;stroke-dasharray:none"
         id="g184">
        <path
           d="M 2.195,0 C 2.916,0 4.067,1.6201 4.464,2.0879 C 4.716,2.4482 4.5,2.4121 4.103,3.8886 C 3.779,5.04 3.888,4.7519 3.563,5.0039 C 3.203,5.2558 0.935,4.7519 0.468,4.5722 C 0.216,4.4638 0,3.5644 0.468,2.1963 C 1.08,0.54 1.727,0 2.195,0 z "
           id="path186" />
      </g>
      <g
         transform="translate(308.844,39.6396)"
         style="fill:#a1a1a1;fill-rule:evenodd;stroke:none;stroke-width:0.036pt;stroke-linecap:butt;stroke-linejoin:miter;stroke-dasharray:none"
         id="g188">
        <path
           d="M 0.359,0.3243 C 1.008,0 3.023,0.3956 3.275,0.5762 C 3.599,0.8643 3.744,1.3682 3.744,2.8438 C 3.744,4.0323 3.744,4.4278 3.347,4.8243 C 3.023,5.1124 1.151,5.0401 0.828,4.8243 C 0.324,4.5 0.252,3.9961 0.179,2.5557 C 0.107,1.7999 0,0.504 0.359,0.3243 z "
           id="path190" />
      </g>
      <g
         transform="translate(352.079,29.9912)"
         style="fill:#a1a1a1;fill-rule:evenodd;stroke:none;stroke-width:0.036pt;stroke-linecap:butt;stroke-linejoin:miter;stroke-dasharray:none"
         id="g192">
        <path
           d="M 0.36,0.3965 C 0,1.044 0.181,3.5645 0.397,4.1406 C 0.576,4.5361 2.124,3.6719 3.565,4.0322 C 4.752,4.2842 5.112,5.2207 5.616,5.0401 C 6.049,4.8965 7.633,2.6641 7.633,2.1963 C 7.633,1.6563 5.328,0.6123 3.96,0.3965 C 2.233,0.1084 0.576,0 0.36,0.3965 z "
           id="path194" />
      </g>
      <g
         transform="translate(358.415,33.6992)"
         style="fill:#a1a1a1;fill-rule:evenodd;stroke:none;stroke-width:0.036pt;stroke-linecap:butt;stroke-linejoin:miter;stroke-dasharray:none"
         id="g196">
        <path
           d="M 2.484,0.0362 C 1.765,0 0.685,1.6563 0.288,2.124 C 0,2.4483 0.217,2.4483 0.612,3.8887 C 0.937,5.0762 0.828,4.7881 1.152,5.0039 C 1.513,5.292 3.744,4.752 4.177,4.6084 C 4.465,4.5 4.645,3.5645 4.177,2.2324 C 3.601,0.5401 2.952,0.0362 2.484,0.0362 z "
           id="path198" />
      </g>
      <g
         transform="translate(359.424,39.3877)"
         style="fill:#a1a1a1;fill-rule:evenodd;stroke:none;stroke-width:0.036pt;stroke-linecap:butt;stroke-linejoin:miter;stroke-dasharray:none"
         id="g200">
        <path
           d="M 3.347,0.3242 C 2.699,0 0.72,0.4316 0.468,0.6113 C 0.143,0.8994 0,1.4043 0,2.8799 C 0,4.0674 0,4.4639 0.359,4.8242 C 0.72,5.1475 2.555,5.0762 2.88,4.8242 C 3.347,4.5 3.456,3.9961 3.527,2.5557 C 3.563,1.8359 3.672,0.5039 3.347,0.3242 z "
           id="path202" />
      </g>
      <g
         transform="translate(323.819,48.6396)"
         style="fill:#a1a1a1;fill-rule:evenodd;stroke:none;stroke-width:0.036pt;stroke-linecap:butt;stroke-linejoin:miter;stroke-dasharray:none"
         id="g204">
        <path
           d="M 0,3.6358 C 0,1.6202 1.153,1.1524 1.153,0.6475 C 1.153,0 8.569,0.1075 8.533,0.6475 C 8.46,1.5118 9.937,1.7276 9.865,4.0323 C 9.828,5.9756 8.029,6.5157 8.136,7.2715 C 8.208,7.8116 1.764,7.7754 1.909,7.2002 C 2.017,6.7676 0,6.084 0,3.6358 z "
           id="path206" />
      </g>
      <g
         transform="translate(339.407,49.2158)"
         style="fill:#a1a1a1;fill-rule:evenodd;stroke:none;stroke-width:0.036pt;stroke-linecap:butt;stroke-linejoin:miter;stroke-dasharray:none"
         id="g208">
        <path
           d="M 0,3.4561 C 0,1.4756 1.836,1.1875 1.836,0.6114 C 1.836,0 7.92,0 7.884,0.5401 C 7.813,1.3682 9.649,1.584 9.613,3.8155 C 9.576,5.6875 7.813,6.2276 7.92,6.9473 C 7.992,7.4522 1.765,7.416 1.872,6.876 C 1.981,6.4434 0,5.7959 0,3.4561 z "
           id="path210" />
      </g>
      <g
         transform="translate(339.588,57.2432)"
         style="fill:#a1a1a1;fill-rule:evenodd;stroke:none;stroke-width:0.036pt;stroke-linecap:butt;stroke-linejoin:miter;stroke-dasharray:none"
         id="g212">
        <path
           d="M 0,3.4922 C 0,1.5127 1.872,1.2246 1.872,0.6484 C 1.872,0 8.136,0.0361 8.1,0.5761 C 8.027,1.4043 9.935,1.6201 9.899,3.8525 C 9.863,5.7607 8.027,6.3359 8.136,7.0566 C 8.208,7.5605 1.8,7.5244 1.943,6.9843 C 2.052,6.5527 0,5.9043 0,3.4922 z "
           id="path214" />
      </g>
      <g
         transform="translate(329.436,15.5557)"
         style="fill:#000000;fill-rule:evenodd;stroke:none;stroke-width:0.036pt;stroke-linecap:butt;stroke-linejoin:miter;stroke-dasharray:none"
         id="g216">
        <path
           d="M 0,2.7363 C 0,4.2119 1.152,5.4355 2.591,5.4355 C 4.032,5.4355 5.183,4.2119 5.183,2.7363 C 5.183,1.2236 4.032,0 2.591,0 C 1.152,0 0,1.2236 0,2.7363 z M 0.431,2.7002 C 0.431,3.8515 1.332,4.8242 2.484,4.8242 C 3.599,4.8242 4.536,3.8515 4.536,2.7002 C 4.536,1.5117 3.599,0.5761 2.484,0.5761 C 1.332,0.5761 0.431,1.5117 0.431,2.7002 z M 1.295,2.5918 C 1.295,3.4199 1.908,4.1035 2.664,4.1035 C 3.419,4.1035 4.032,3.4199 4.032,2.5918 C 4.032,1.7636 3.419,1.1162 2.664,1.1162 C 1.908,1.1162 1.295,1.7636 1.295,2.5918 z "
           id="path218" />
      </g>
      <g
         transform="translate(335.88,15.6279)"
         style="fill:#000000;fill-rule:evenodd;stroke:none;stroke-width:0.036pt;stroke-linecap:butt;stroke-linejoin:miter;stroke-dasharray:none"
         id="g220">
        <path
           d="M 0,2.7715 C 0,4.3194 1.187,5.544 2.664,5.544 C 4.14,5.544 5.327,4.3194 5.327,2.7715 C 5.327,1.2237 4.14,0 2.664,0 C 1.187,0 0,1.2237 0,2.7715 z M 0.683,2.7354 C 0.683,3.96 1.619,4.9317 2.808,4.9317 C 3.96,4.9317 4.643,3.9239 4.643,2.6992 C 4.643,1.5117 3.96,0.5752 2.808,0.5752 C 1.619,0.5752 0.683,1.5479 0.683,2.7354 z M 1.26,2.6641 C 1.26,3.4912 1.872,4.1397 2.628,4.1397 C 3.348,4.1397 3.96,3.4912 3.96,2.6641 C 3.96,1.836 3.348,1.1875 2.628,1.1875 C 1.872,1.1875 1.26,1.836 1.26,2.6641 z "
           id="path222" />
      </g>
      <g
         transform="translate(320.399,26.2471)"
         style="fill:#e0e0e0;fill-rule:evenodd;stroke:none;stroke-width:0.036pt;stroke-linecap:butt;stroke-linejoin:miter;stroke-dasharray:none"
         id="g224">
        <path
           d="M 1.405,1.1162 C 2.449,0.1806 27.504,0 30.168,0.792 C 31.428,1.1523 30.781,16.5605 30.277,20.8808 C 30.132,21.9961 0.972,21.8164 0.792,20.8086 C 0.037,16.7041 0,2.3759 1.405,1.1162 z "
           id="path226" />
      </g>
      <g
         transform="translate(324.647,30.0273)"
         style="fill:#000000;fill-rule:evenodd;stroke:none;stroke-width:0.036pt;stroke-linecap:butt;stroke-linejoin:miter;stroke-dasharray:none"
         id="g228">
        <path
           d="M 0.109,0.2159 C 0.216,0.0362 4.392,0 4.644,0.1797 C 4.752,0.2881 4.752,3.4561 4.573,3.6358 C 4.392,3.8526 0.397,3.8165 0.18,3.6719 C 0.037,3.5284 0,0.504 0.109,0.2159 z "
           id="path230" />
      </g>
      <g
         transform="translate(325.655,30.7471)"
         style="fill:#0000ff;fill-rule:evenodd;stroke:none;stroke-width:0.036pt;stroke-linecap:butt;stroke-linejoin:miter;stroke-dasharray:none"
         id="g232">
        <path
           d="M 0.036,0.1445 C 0.109,0 2.557,0 2.7,0.1084 C 2.809,0.1806 2.773,2.0527 2.664,2.1601 C 2.557,2.2685 0.216,2.2685 0.109,2.1601 C 0,2.0888 0,0.2881 0.036,0.1445 z "
           id="path234" />
      </g>
      <g
         transform="translate(336.455,34.6357)"
         style="fill:#000000;fill-rule:evenodd;stroke:none;stroke-width:0.036pt;stroke-linecap:butt;stroke-linejoin:miter;stroke-dasharray:none"
         id="g236">
        <path
           d="M 0.217,0.5401 C 0.433,0.0713 9.937,0 10.513,0.4678 C 10.801,0.6836 10.765,8.2442 10.368,8.6397 C 9.937,9.1075 0.828,9.0713 0.397,8.6758 C 0.072,8.3877 0,1.1875 0.217,0.5401 z "
           id="path238" />
      </g>
      <g
         transform="translate(337.607,35.6074)"
         style="fill:#0000ff;fill-rule:evenodd;stroke:none;stroke-width:0.036pt;stroke-linecap:butt;stroke-linejoin:miter;stroke-dasharray:none"
         id="g240">
        <path
           d="M 0.216,0.4317 C 0.361,0.0362 7.956,0 8.424,0.3604 C 8.64,0.5401 8.64,6.5518 8.317,6.9121 C 7.956,7.2725 0.684,7.2364 0.361,6.9483 C 0.073,6.6963 0,0.9365 0.216,0.4317 z "
           id="path242" />
      </g>
      <g
         transform="translate(330.479,29.9912)"
         style="fill:#000000;fill-rule:evenodd;stroke:none;stroke-width:0.036pt;stroke-linecap:butt;stroke-linejoin:miter;stroke-dasharray:none"
         id="g244">
        <path
           d="M 0.109,0.252 C 0.18,0.0361 4.392,0 4.644,0.1807 C 4.752,0.2881 4.752,3.4922 4.573,3.6719 C 4.357,3.8526 0.361,3.8526 0.18,3.6719 C 0.037,3.5283 0,0.5039 0.109,0.252 z "
           id="path246" />
      </g>
      <g
         transform="translate(331.451,30.7119)"
         style="fill:#0000ff;fill-rule:evenodd;stroke:none;stroke-width:0.036pt;stroke-linecap:butt;stroke-linejoin:miter;stroke-dasharray:none"
         id="g248">
        <path
           d="M 0.072,0.1436 C 0.145,0.0352 2.593,0 2.737,0.1074 C 2.809,0.1797 2.809,2.0518 2.7,2.1592 C 2.593,2.2676 0.217,2.2676 0.109,2.1592 C 0.036,2.0879 0,0.2871 0.072,0.1436 z "
           id="path250" />
      </g>
      <g
         transform="translate(324.72,34.96)"
         style="fill:#000000;fill-rule:evenodd;stroke:none;stroke-width:0.036pt;stroke-linecap:butt;stroke-linejoin:miter;stroke-dasharray:none"
         id="g252">
        <path
           d="M 0.107,0.2158 C 0.179,0.0351 4.391,0 4.607,0.1796 C 4.752,0.2871 4.752,3.455 4.571,3.6357 C 4.355,3.8154 0.359,3.8154 0.179,3.6718 C 0.036,3.5273 0,0.5039 0.107,0.2158 z "
           id="path254" />
      </g>
      <g
         transform="translate(325.691,35.6797)"
         style="fill:#0000ff;fill-rule:evenodd;stroke:none;stroke-width:0.036pt;stroke-linecap:butt;stroke-linejoin:miter;stroke-dasharray:none"
         id="g256">
        <path
           d="M 0.073,0.1435 C 0.109,0 2.592,0 2.737,0.1074 C 2.808,0.1435 2.808,2.0517 2.701,2.1601 C 2.592,2.2676 0.216,2.2676 0.109,2.1601 C 0.037,2.0879 0,0.2881 0.073,0.1435 z "
           id="path258" />
      </g>
      <g
         transform="translate(330.552,34.9238)"
         style="fill:#000000;fill-rule:evenodd;stroke:none;stroke-width:0.036pt;stroke-linecap:butt;stroke-linejoin:miter;stroke-dasharray:none"
         id="g260">
        <path
           d="M 0.107,0.2158 C 0.179,0.0362 4.355,0 4.607,0.1797 C 4.752,0.2881 4.752,3.4912 4.571,3.6358 C 4.355,3.8516 0.359,3.8155 0.179,3.6719 C 0.036,3.5274 0,0.5039 0.107,0.2158 z "
           id="path262" />
      </g>
      <g
         transform="translate(331.523,35.6436)"
         style="fill:#0000ff;fill-rule:evenodd;stroke:none;stroke-width:0.036pt;stroke-linecap:butt;stroke-linejoin:miter;stroke-dasharray:none"
         id="g264">
        <path
           d="M 0.073,0.1435 C 0.109,0 2.592,0 2.737,0.1084 C 2.808,0.1796 2.808,2.0517 2.701,2.1601 C 2.592,2.2675 0.216,2.2675 0.109,2.1601 C 0.037,2.0878 0,0.288 0.073,0.1435 z "
           id="path266" />
      </g>
      <g
         transform="translate(324.899,39.7832)"
         style="fill:#000000;fill-rule:evenodd;stroke:none;stroke-width:0.036pt;stroke-linecap:butt;stroke-linejoin:miter;stroke-dasharray:none"
         id="g268">
        <path
           d="M 0.109,0.252 C 0.18,0.0361 4.357,0 4.609,0.1807 C 4.752,0.2881 4.716,3.4922 4.537,3.6719 C 4.357,3.8525 0.361,3.8525 0.18,3.6719 C 0.037,3.5283 0,0.5039 0.109,0.252 z "
           id="path270" />
      </g>
      <g
         transform="translate(325.871,40.5039)"
         style="fill:#ff0000;fill-rule:evenodd;stroke:none;stroke-width:0.036pt;stroke-linecap:butt;stroke-linejoin:miter;stroke-dasharray:none"
         id="g272">
        <path
           d="M 0.072,0.1436 C 0.108,0.0352 2.593,0 2.736,0.1074 C 2.809,0.1797 2.809,2.0518 2.7,2.1592 C 2.593,2.2676 0.217,2.2676 0.108,2.1592 C 0.036,2.0879 0,0.2881 0.072,0.1436 z "
           id="path274" />
      </g>
      <g
         transform="translate(330.695,39.7471)"
         style="fill:#000000;fill-rule:evenodd;stroke:none;stroke-width:0.036pt;stroke-linecap:butt;stroke-linejoin:miter;stroke-dasharray:none"
         id="g276">
        <path
           d="M 0.145,0.2519 C 0.216,0.0361 4.393,0 4.645,0.2168 C 4.788,0.2881 4.752,3.4922 4.573,3.6728 C 4.393,3.8525 0.397,3.8525 0.216,3.6728 C 0.073,3.5644 0,0.5049 0.145,0.2519 z "
           id="path278" />
      </g>
      <g
         transform="translate(331.703,40.4678)"
         style="fill:#0000ff;fill-rule:evenodd;stroke:none;stroke-width:0.036pt;stroke-linecap:butt;stroke-linejoin:miter;stroke-dasharray:none"
         id="g280">
        <path
           d="M 0.072,0.1435 C 0.109,0.0361 2.593,0 2.736,0.1074 C 2.809,0.1797 2.809,2.0517 2.7,2.1601 C 2.593,2.2676 0.217,2.2676 0.109,2.1601 C 0.036,2.0879 0,0.3242 0.072,0.1435 z "
           id="path282" />
      </g>
      <path
         style="fill:#000000;fill-rule:evenodd;stroke:none;stroke-width:0.036pt;stroke-linecap:butt;stroke-linejoin:miter;stroke-dasharray:none"
         id="path286"
         d="M 336.527,30.2432 C 336.6,30.0273 340.812,29.9912 341.063,30.207 C 341.172,30.3154 341.172,33.4834 340.991,33.6631 C 340.775,33.8438 336.779,33.8438 336.6,33.6631 C 336.455,33.5557 336.42,30.5313 336.527,30.2432 z " />
      <g
         transform="translate(337.392,30.7119)"
         style="fill:#ff0000;fill-rule:evenodd;stroke:none;stroke-width:0.036pt;stroke-linecap:butt;stroke-linejoin:miter;stroke-dasharray:none"
         id="g288">
        <path
           d="M 0.072,0.1436 C 0.143,0.0352 2.591,0 2.736,0.1436 C 2.807,0.1797 2.807,2.0518 2.7,2.1592 C 2.591,2.2676 0.252,2.2676 0.143,2.1953 C 0.036,2.0879 0,0.3233 0.072,0.1436 z "
           id="path290" />
      </g>
      <g
         transform="translate(342.252,29.9912)"
         style="fill:#000000;fill-rule:evenodd;stroke:none;stroke-width:0.036pt;stroke-linecap:butt;stroke-linejoin:miter;stroke-dasharray:none"
         id="g292">
        <path
           d="M 0.107,0.2158 C 0.18,0.0361 4.355,0 4.607,0.1807 C 4.752,0.2881 4.752,3.4561 4.571,3.6367 C 4.355,3.8164 0.359,3.8164 0.18,3.6719 C 0.035,3.5283 0,0.5039 0.107,0.2158 z "
           id="path294" />
      </g>
      <g
         transform="translate(343.224,30.7119)"
         style="fill:#ff0000;fill-rule:evenodd;stroke:none;stroke-width:0.036pt;stroke-linecap:butt;stroke-linejoin:miter;stroke-dasharray:none"
         id="g296">
        <path
           d="M 0.072,0.1436 C 0.107,0 2.591,0 2.736,0.1074 C 2.807,0.1436 2.807,2.0518 2.7,2.1592 C 2.591,2.2676 0.215,2.2676 0.107,2.1592 C 0.036,2.0879 0,0.2871 0.072,0.1436 z "
           id="path298" />
      </g>
    </g>
  </g>
  <g
     id="g5185"
     transform="matrix(1.7221748,0,0,1.7221748,-178.52258,-14.543718)">
    <path
       transform="matrix(2.4919355,0,0,1.9999999,-345.09678,-94.249994)"
       d="M 220.5 97.625 A 15.5 3.875 0 1 1  189.5,97.625 A 15.5 3.875 0 1 1  220.5 97.625 z"
       sodipodi:ry="3.875"
       sodipodi:rx="15.5"
       sodipodi:cy="97.625"
       sodipodi:cx="205"
       id="path5102"
       style="opacity:0.65;fill:#000000;fill-opacity:1;fill-rule:evenodd;stroke:none;stroke-width:2;stroke-linecap:round;stroke-linejoin:round;stroke-miterlimit:4;stroke-dasharray:none;stroke-opacity:1;filter:url(#filter5209)"
       sodipodi:type="arc" />
    <g
       transform="matrix(0.5901167,-7.6980998e-2,7.6980998e-2,0.5901167,80.386549,11.169842)"
       id="g2732">
      <g
         transform="translate(-0.220695,-0.848633)"
         style="fill:#ffffff;fill-rule:evenodd;stroke:none;stroke-width:0.036pt;stroke-linecap:butt;stroke-linejoin:miter;stroke-dasharray:none"
         id="g2711" />
      <g
         transform="translate(21.660012,16.626074)"
         id="g2742">
        <g
           id="g2715"
           style="fill:#a16121;fill-rule:evenodd;stroke:#000000;stroke-width:2;stroke-linecap:butt;stroke-linejoin:miter;stroke-miterlimit:4;stroke-dasharray:none"
           transform="translate(96.9072,20.1758)">
          <path
             style="stroke-width:2;stroke-miterlimit:4;stroke-dasharray:none"
             id="path2717"
             d="M 1.0078,35.6758 C 0.6485,26.5312 0,21.3476 0.9004,12.3838 C 1.5127,6.1553 3.3488,1.8359 5.4368,0 C 5.4368,0 9.8278,2.8076 9.8278,2.8076 C 6.8758,5.3281 5.4368,10.2597 5.2208,15.9834 C 4.8968,25.1279 5.9048,29.7715 6.8398,37.6201 C 6.8398,37.6201 1.0088,35.6767 1.0088,35.6767 C 1.0088,35.6767 1.0078,35.6758 1.0078,35.6758 z " />
        </g>
        <g
           id="g2719"
           style="fill:#ff1e00;fill-rule:evenodd;stroke:#000000;stroke-width:2;stroke-linecap:butt;stroke-linejoin:miter;stroke-miterlimit:4;stroke-dasharray:none"
           transform="translate(34.1953,43.5391)">
          <path
             sodipodi:nodetypes="ccccsccccc"
             style="stroke-width:2;stroke-miterlimit:4;stroke-dasharray:none"
             id="path2721"
             d="M 48.708,1.9082 C 37.4766,0.3964 35.9277,0 24.6602,4.0322 C 4.2842,11.3408 0,40.8964 2.7363,56.8809 C 7.0205,82.0799 3.0606,96.7319 27.1446,109.836 C 35.8203,114.553 47.916,110.916 55.1162,111.24 C 62.3164,111.565 66.7807,117.612 76.0687,115.74 C 106.309,109.62 103.788,95.8679 116.533,66.6729 C 127.405,41.8321 126.901,36.0361 116.641,20.3047 C 106.344,4.5722 88.7037,2.4483 77.9407,3.7441 C 60.6963,5.7969 69.367933,5.9570602 48.708,1.9082 z " />
        </g>
        <g
           id="g2723"
           style="opacity:0.73999999;fill:url(#linearGradient5223);fill-opacity:1;fill-rule:evenodd;stroke:none;stroke-width:0.036pt;stroke-linecap:butt;stroke-linejoin:miter;stroke-dasharray:none;filter:url(#filter3362)"
           transform="translate(48.8115,50.2715)">
          <path
             id="path2725"
             d="M 2.8799,11.9521 C 6.1580275,3.3134707 18.650034,-0.35952894 23.522385,2.0306567 C 77.297427,28.410601 -16.585356,63.247584 2.8799,11.9521 z "
             style="fill:url(#linearGradient5225);fill-opacity:1"
             sodipodi:nodetypes="css" />
        </g>
      </g>
    </g>
  </g>
  <path
     id="path2285"
     style="font-size:12px;font-style:normal;font-weight:normal;fill:#000000;fill-opacity:1;stroke:none;stroke-width:1px;stroke-linecap:butt;stroke-linejoin:miter;stroke-opacity:1;font-family:Bitstream Vera Sans"
     d="M 80.56708,104.77441 C 79.411939,104.62556 78.588986,103.08779 78.098226,100.16109 C 77.910179,99.04487 77.744334,97.11251 77.600761,94.36401 C 76.298538,94.36608 74.583959,94.44847 72.45696,94.61117 L 67.320492,94.95029 C 66.491227,96.43289 65.123236,98.58014 63.21649,101.39201 C 62.728561,102.00861 62.139344,102.27241 61.448811,102.18343 C 60.946595,102.11871 60.520034,101.88783 60.169133,101.49074 C 59.818261,101.09365 59.675858,100.63851 59.74199,100.1253 C 59.815811,99.55242 61.044446,97.49641 63.42783,93.957281 C 63.254361,93.619469 63.193789,93.247667 63.246082,92.841864 C 63.370655,91.875129 64.065856,91.333781 65.331648,91.217816 C 67.092075,88.848154 69.278387,86.145099 71.890588,83.108634 C 75.449092,78.968691 77.592449,76.945626 78.320689,77.03944 C 79.312515,77.167273 79.905927,77.911072 80.100889,79.270831 L 80.512238,85.439014 L 81.715057,98.24296 L 82.42403,101.20991 C 82.663526,102.22357 82.762529,102.89152 82.721037,103.21378 C 82.654872,103.72698 82.404919,104.13157 81.971114,104.42754 C 81.537276,104.7235 81.069265,104.83912 80.56708,104.77441 L 80.56708,104.77441 z M 76.555834,83.454996 L 70.106047,91.014046 C 71.672937,90.839839 74.034499,90.68915 77.190837,90.561998 L 76.555834,83.454996 z " />
  <path
     id="path2281"
     style="font-size:12px;font-style:normal;font-weight:normal;fill:#000000;fill-opacity:1;stroke:none;stroke-width:1px;stroke-linecap:butt;stroke-linejoin:miter;stroke-opacity:1;font-family:Bitstream Vera Sans"
     d="M 98.89056,101.05397 C 97.00497,102.4169 94.457942,103.38331 91.249475,103.95317 C 90.855289,104.02318 90.441022,103.8602 90.006628,103.46422 C 89.572211,103.06824 89.31178,102.62676 89.225286,102.13978 L 88.347285,97.19641 C 88.059646,95.57694 87.731821,93.251978 87.363784,90.221528 C 86.971838,86.950023 86.656308,84.587833 86.417165,83.134957 C 86.222963,82.094699 85.997801,80.534221 85.741727,78.453501 C 85.705319,77.875879 85.790189,77.475289 85.996363,77.251728 C 87.158603,76.554671 88.532658,76.065295 90.118549,75.783596 C 91.731953,75.497062 93.401878,75.9014 95.128303,76.996614 C 97.12013,78.255023 98.32019,80.033705 98.72854,82.332662 C 99.24546,85.243214 98.73609,87.699346 97.20037,89.701072 C 98.70415,90.181659 99.87597,90.802976 100.71582,91.565017 C 101.55564,92.327079 102.06809,93.229056 102.25315,94.27095 C 102.49654,95.64129 102.13143,97.07296 101.15786,98.56597 C 100.48456,99.62014 99.7288,100.44947 98.89056,101.05397 L 98.89056,101.05397 z M 90.734055,79.249054 C 89.734853,79.426547 89.040612,79.590741 88.65135,79.741633 L 89.151854,82.719335 L 90.044489,89.342364 C 91.370355,89.247076 92.078102,89.185625 92.167776,89.158002 C 93.527854,88.77626 94.565441,88.042907 95.280534,86.957932 C 96.04571,85.782323 96.2875,84.401759 96.00592,82.816232 C 95.814808,81.740378 95.15655,80.829253 94.031093,80.082859 C 92.905621,79.336513 91.8066,79.058581 90.734055,79.249054 L 90.734055,79.249054 z M 94.690886,92.582547 L 93.182043,92.552634 C 93.062877,92.573813 92.883333,92.614461 92.643434,92.674581 C 92.403516,92.73473 92.219396,92.776195 92.091051,92.798977 C 91.596027,92.886912 91.059869,92.92957 90.482577,92.926952 C 90.681014,94.36368 90.8798,95.64263 91.078957,96.7638 L 91.703514,100.28022 C 94.087158,99.75172 95.969886,98.98508 97.35172,97.9803 C 97.93909,97.56056 98.46881,96.97582 98.94087,96.22608 C 99.39543,95.53787 99.59658,95.04654 99.5443,94.75207 C 99.44974,94.21981 98.75644,93.723786 97.46441,93.264004 C 96.49384,92.910697 95.569344,92.683539 94.690886,92.582547 L 94.690886,92.582547 z " />
  <path
     style="font-size:12px;font-style:normal;font-weight:normal;fill:#000000;fill-opacity:1;stroke:none;stroke-width:1px;stroke-linecap:butt;stroke-linejoin:miter;stroke-opacity:1;font-family:Bitstream Vera Sans"
     d="M 119.03971,82.688423 C 118.37562,82.890519 117.76378,82.668201 117.20419,82.021473 C 116.71948,81.471822 116.33139,81.165086 116.03986,81.101265 C 115.7886,81.057917 115.23233,81.167278 114.3711,81.429324 C 112.86651,81.887181 111.53266,83.502212 110.36955,86.274413 C 108.78329,90.003288 108.39518,93.19872 109.20521,95.86071 C 109.59657,97.14685 110.36394,98.12249 111.50734,98.78762 C 112.68058,99.47636 113.88978,99.63128 115.13495,99.25238 C 116.20372,98.92716 117.19729,98.33615 118.11564,97.47936 C 118.62645,96.99713 119.37095,96.12789 120.34917,94.87161 C 120.81319,94.27291 121.19567,93.927761 121.49661,93.836182 C 121.94276,93.700424 122.3656,93.748771 122.76514,93.981218 C 123.16465,94.21368 123.42509,94.52931 123.54644,94.92811 C 123.68297,95.37676 123.60565,95.83057 123.31451,96.28953 C 121.28502,99.4561 118.86947,101.46565 116.06785,102.31816 C 113.91992,102.97177 111.86287,102.73171 109.89667,101.59799 C 107.99753,100.49834 106.72939,98.90166 106.09229,96.80795 C 105.06382,93.428121 105.48301,89.515183 107.34988,85.069106 C 108.90805,81.359703 110.93747,79.124518 113.4382,78.36354 C 113.94664,78.208846 114.41004,78.092346 114.82836,78.014052 C 115.24668,77.935801 115.62667,77.899146 115.9683,77.904097 C 116.17674,77.285145 116.57152,76.887237 117.15259,76.710395 C 117.86857,76.492555 118.45798,76.808841 118.92085,77.65925 C 119.33259,78.416329 119.71747,79.383089 120.07548,80.559523 C 120.19983,80.968321 120.19491,81.361975 120.0607,81.740486 C 119.89885,82.214587 119.55852,82.530567 119.03971,82.688423 L 119.03971,82.688423 z "
     id="path2275" />
  <path
     style="font-size:12px;font-style:normal;font-weight:normal;fill:#000000;fill-opacity:1;stroke:none;stroke-width:1px;stroke-linecap:butt;stroke-linejoin:miter;stroke-opacity:1;font-family:Bitstream Vera Sans"
     d="M 80.548688,140.33363 L 77.41022,140.63508 L 74.285876,140.91782 C 73.549909,140.9885 73.029754,140.98638 72.725454,140.91141 C 72.169404,140.75646 71.859429,140.34632 71.795529,139.68104 C 71.684256,138.52252 72.453972,137.86397 74.10468,137.70544 L 74.863348,137.64993 L 75.513256,137.62224 C 75.460376,137.07167 75.337473,136.26156 75.14455,135.19189 C 74.9516,134.12226 74.829249,133.31789 74.777465,132.77875 C 74.637549,131.32199 74.545828,129.0966 74.502323,126.10251 C 74.452706,123.15533 74.349905,120.92516 74.193981,119.41203 C 72.899665,120.74029 72.057985,121.42312 71.668965,121.46046 C 71.248406,121.50088 70.866522,121.36393 70.523312,121.04957 C 70.180083,120.73527 69.986985,120.35444 69.944042,119.90704 C 69.892236,119.36797 70.281547,118.6707 71.111949,117.81534 C 71.637855,117.32494 72.374983,116.54799 73.323335,115.48447 C 74.150496,114.37475 74.984667,113.77948 75.825791,113.69866 C 76.530241,113.63103 76.924879,114.03882 77.009707,114.92203 C 77.035051,115.18585 77.041239,115.58175 77.028275,116.10971 C 77.015312,116.6377 77.0215,117.03359 77.046863,117.29737 C 77.083196,117.67594 77.156691,118.24769 77.267298,119.01265 C 77.377912,119.77768 77.451406,120.34942 77.487761,120.72794 C 77.613358,122.03562 77.674467,123.99774 77.671143,126.61429 C 77.667762,129.23084 77.728347,131.18721 77.85284,132.48338 C 77.916742,133.14868 78.036456,133.9533 78.212038,134.89728 C 78.387567,135.84126 78.509801,136.61668 78.578715,137.22362 L 80.231393,137.03014 C 80.67295,136.98775 81.053485,137.11034 81.372916,137.39805 C 81.692347,137.68571 81.874644,138.06468 81.919841,138.53496 C 81.966089,139.01676 81.85953,139.42637 81.600145,139.76383 C 81.340758,140.10129 80.990245,140.29123 80.548688,140.33363 L 80.548688,140.33363 z "
     id="path2273" />
  <path
     style="font-size:12px;font-style:normal;font-weight:normal;fill:#000000;fill-opacity:1;stroke:none;stroke-width:1px;stroke-linecap:butt;stroke-linejoin:miter;stroke-opacity:1;font-family:Bitstream Vera Sans"
     d="M 98.04504,139.90767 C 97.78097,139.90767 97.40863,139.81837 96.92805,139.63975 C 96.44744,139.46115 96.0804,139.37184 95.826931,139.37184 C 95.288216,139.37184 94.480209,139.40639 93.402829,139.47554 C 92.325451,139.54468 91.512144,139.57923 90.962907,139.57923 C 90.550955,139.57923 89.940989,139.63688 89.132956,139.7521 C 88.32492,139.86734 87.714928,139.92495 87.303001,139.92495 C 87.186811,139.92495 87.01781,139.90191 86.796003,139.8558 C 86.574193,139.80973 86.405195,139.78668 86.289004,139.78668 C 85.560197,139.78668 85.084889,139.40065 84.863079,138.62859 C 84.736318,138.22525 84.672962,137.5339 84.672962,136.5544 C 84.672962,133.86948 85.34366,131.70886 86.685112,130.07255 C 87.297728,129.32355 88.950761,127.94074 91.644179,125.92416 C 93.154603,124.7949 94.163326,123.91337 94.670326,123.27954 C 95.578677,122.17333 96.03287,120.87696 96.03289,119.39043 C 96.03287,118.65296 95.594522,117.99613 94.717861,117.41995 C 93.946791,116.9014 93.191567,116.64215 92.452213,116.64213 C 91.480453,116.64215 90.556229,116.9475 89.679566,117.55821 L 87.413919,119.49414 C 86.959729,119.88595 86.595311,120.08183 86.320693,120.08182 C 85.232771,120.08183 84.688782,119.60938 84.688808,118.66445 C 84.688782,118.12288 84.889473,117.6562 85.290851,117.26438 C 86.526656,115.99683 87.598764,115.08073 88.507143,114.51608 C 89.785184,113.72099 91.100217,113.32344 92.452213,113.3234 C 94.163326,113.32344 95.689594,113.83047 97.03105,114.84448 C 98.5309,115.98531 99.28082,117.44877 99.28085,119.23486 C 99.28082,120.41028 99.12767,121.49345 98.82139,122.48446 C 98.51505,123.47547 98.05032,124.38005 97.42713,125.19819 C 96.63494,126.2353 95.293515,127.3934 93.402829,128.67248 C 91.417072,130.03222 90.112611,131.06355 89.489448,131.76646 C 88.316997,133.09166 87.741344,134.69916 87.762464,136.58897 L 91.02629,136.26054 C 93.26552,136.12226 94.865716,136.05312 95.826931,136.05312 C 96.62967,136.05312 97.39016,136.20291 98.10842,136.50256 C 99.05901,136.90585 99.53432,137.46474 99.53435,138.17916 C 99.53432,138.62859 99.39174,139.02902 99.10658,139.38047 C 98.82136,139.73193 98.46751,139.90767 98.04504,139.90767 L 98.04504,139.90767 z "
     id="path2271" />
  <path
     style="font-size:12px;font-style:normal;font-weight:normal;fill:#000000;fill-opacity:1;stroke:none;stroke-width:1px;stroke-linecap:butt;stroke-linejoin:miter;stroke-opacity:1;font-family:Bitstream Vera Sans"
     d="M 106.80241,140.24496 C 105.23408,139.95473 103.89283,139.33739 102.7786,138.39289 C 101.52951,137.30628 100.7993,135.96996 100.58794,134.38394 C 100.56336,134.16844 100.5689,133.96439 100.60457,133.77175 C 100.68841,133.31854 100.91652,132.97107 101.28889,132.72946 C 101.66124,132.4878 102.0551,132.40541 102.47056,132.48228 C 102.886,132.55916 103.20554,132.83511 103.42915,133.31008 L 103.92876,134.61545 C 104.19991,135.23984 104.62659,135.7495 105.20878,136.14434 C 105.79097,136.53917 106.52344,136.81831 107.40629,136.98164 C 108.53836,137.19118 109.60153,136.98945 110.5958,136.37656 C 111.65034,135.72795 112.28666,134.81444 112.50475,133.63603 C 112.82135,131.92507 112.49757,130.45301 111.53344,129.21988 C 110.67916,128.14774 109.42857,127.35968 107.78167,126.85565 C 106.65187,126.51768 106.16978,125.90111 106.33545,125.00595 C 106.45915,124.33746 107.00533,123.91119 107.9739,123.72712 L 111.8829,123.41337 C 112.65196,123.26272 113.26278,122.98026 113.71546,122.56594 C 114.16805,122.15166 114.46352,121.59988 114.60182,120.91058 C 114.8071,119.91731 114.60286,119.04748 113.98908,118.30105 C 113.3483,117.52623 112.34244,117.01198 110.97148,116.75825 C 110.26521,116.62755 109.54514,116.68768 108.81123,116.93857 L 106.82746,117.81952 C 106.44068,117.99406 106.14344,118.0621 105.93572,118.02365 C 105.52026,117.9468 105.19651,117.70817 104.96446,117.30779 C 104.73243,116.90742 104.65726,116.48629 104.73905,116.04437 C 104.90469,115.14923 105.85859,114.43512 107.60077,113.90202 C 109.11841,113.42116 110.32382,113.26337 111.21704,113.42863 C 113.45004,113.84189 115.12127,114.7078 116.23076,116.02639 C 117.41896,117.44161 117.81496,119.22001 117.41867,121.36154 C 116.92591,124.02435 115.6142,125.59803 113.48359,126.08267 C 113.29234,126.12933 113.07513,126.17114 112.83198,126.20816 C 114.11056,127.01902 114.99038,128.04027 115.47145,129.27187 C 115.95248,130.50348 116.03993,131.94645 115.73381,133.60075 C 115.32072,135.83293 114.24818,137.59446 112.51622,138.8853 C 110.78421,140.17613 108.87961,140.62936 106.80241,140.24496 L 106.80241,140.24496 z "
     id="text2262"
     inkscape:transform-center-y="-4.3840343"
     inkscape:transform-center-x="-4.9320446" />
</svg>
